<?xml version="1.0" encoding="UTF-8" standalone="no"?>
<svg
   xmlns:dc="http://purl.org/dc/elements/1.1/"
   xmlns:cc="http://creativecommons.org/ns#"
   xmlns:rdf="http://www.w3.org/1999/02/22-rdf-syntax-ns#"
   xmlns:svg="http://www.w3.org/2000/svg"
   xmlns="http://www.w3.org/2000/svg"
   xmlns:sodipodi="http://sodipodi.sourceforge.net/DTD/sodipodi-0.dtd"
   xmlns:inkscape="http://www.inkscape.org/namespaces/inkscape"
   width="274.87418"
   height="280.40436"
   version="1.1"
   id="svg156"
   sodipodi:docname="Unknown.svg"
   inkscape:version="0.92.2 5c3e80d, 2017-08-06">
  <metadata
     id="metadata162">
    <rdf:RDF>
      <cc:Work
         rdf:about="">
        <dc:format>image/svg+xml</dc:format>
        <dc:type
           rdf:resource="http://purl.org/dc/dcmitype/StillImage" />
        <dc:title></dc:title>
      </cc:Work>
    </rdf:RDF>
  </metadata>
  <defs
     id="defs160">
    <inkscape:perspective
       sodipodi:type="inkscape:persp3d"
       inkscape:vp_x="0 : 200 : 1"
       inkscape:vp_y="0 : 1000 : 0"
       inkscape:vp_z="580 : 200 : 1"
       inkscape:persp3d-origin="290 : 133.33333 : 1"
       id="perspective7804" />
    <marker
       inkscape:stockid="DotL"
       orient="auto"
       refY="0"
       refX="0"
       id="DotL"
       style="overflow:visible"
       inkscape:isstock="true">
      <path
         id="path4732"
         d="m -2.5,-1 c 0,2.76 -2.24,5 -5,5 -2.76,0 -5,-2.24 -5,-5 0,-2.76 2.24,-5 5,-5 2.76,0 5,2.24 5,5 z"
         style="fill:#024757;fill-opacity:1;fill-rule:evenodd;stroke:#024757;stroke-width:1.00000003pt;stroke-opacity:1"
         transform="matrix(0.8,0,0,0.8,5.92,0.8)"
         inkscape:connector-curvature="0" />
    </marker>
  </defs>
  <sodipodi:namedview
     pagecolor="#ffffff"
     bordercolor="#666666"
     borderopacity="1"
     objecttolerance="10"
     gridtolerance="10"
     guidetolerance="10"
     inkscape:pageopacity="0"
     inkscape:pageshadow="2"
     inkscape:window-width="1920"
     inkscape:window-height="1058"
     id="namedview158"
     showgrid="false"
     inkscape:zoom="1.7475"
     inkscape:cx="128.28091"
     inkscape:cy="71.154817"
     inkscape:window-x="1325"
     inkscape:window-y="14"
     inkscape:window-maximized="0"
     inkscape:current-layer="g154"
     fit-margin-right="2"
     fit-margin-top="2"
     fit-margin-left="0"
     fit-margin-bottom="2" />
  <g
     id="g154"
     transform="translate(-129.10778,-29.80412)">
    <title
       id="title106">Layer 1</title>
    <circle
       id="svg_37"
       cy="258.5"
       cx="388.5"
       stroke-width="null"
       r="0"
       style="fill:#59d6d6" />
    <g
       id="g8233">
      <g
         id="g7641">
        <g
           stroke="null"
           id="svg_42"
           transform="translate(-19.018038,17.80412)">
          <circle
             id="svg_36"
             cy="147"
             cx="288"
             stroke-width="null"
             r="133"
             style="opacity:1;fill:#ccf3f3;fill-opacity:1" />
          <circle
             r="114.31054"
             cy="147"
             cx="288"
             id="path7916"
             style="fill:#b2ecec;fill-opacity:0.98999999;stroke:none;stroke-linecap:round;stroke-linejoin:bevel;stroke-opacity:0.03482588" />
          <g
             stroke="null"
             id="svg_9">
            <g
               stroke="null"
               id="svg_51">
              <g
                 stroke="null"
                 id="svg_10">
                <path
                   stroke="null"
                   d="m 244.76961,159.80435 v 5.60086 a 21.86652,21.86652 0 0 0 -3.4448,1.43738 l -3.96521,-3.96519 -9.34303,9.34303 3.95696,3.95697 a 21.86652,21.86652 0 0 0 -1.41263,3.45303 h -5.61739 v 13.21739 h 5.60088 a 21.86652,21.86652 0 0 0 1.43738,3.4448 l -3.9652,3.97345 9.34303,9.34306 3.95697,-3.95695 a 21.86652,21.86652 0 0 0 3.45304,1.41259 v 5.61741 h 13.21736 v -5.6009 a 21.86652,21.86652 0 0 0 3.44479,-1.43737 l 3.96524,3.96522 9.34305,-9.34306 -3.95697,-3.95694 a 21.86652,21.86652 0 0 0 1.4126,-3.45303 h 5.61737 v -13.2174 h -5.60083 a 21.86652,21.86652 0 0 0 -1.43738,-3.44479 l 3.97348,-3.96524 -9.34305,-9.34303 -3.957,3.95695 a 21.86652,21.86652 0 0 0 -3.45297,-1.4126 v -5.61738 H 244.77788 Z M 251.3783,175.5 a 10.73913,10.73913 0 0 1 10.7391,10.73912 10.73913,10.73913 0 0 1 -10.7391,10.73914 A 10.73913,10.73913 0 0 1 240.63918,186.23912 10.73913,10.73913 0 0 1 251.3783,175.5 Z"
                   id="svg_2"
                   inkscape:connector-curvature="0"
                   style="fill:#929497" />
                <path
                   stroke="null"
                   class="gear__part gear__part--1"
                   d="M 251.3783,159.80435 V 175.5 a 10.73913,10.73913 0 0 1 7.59173,3.14738 l 11.10263,-11.10261 -4.67566,-4.67563 -3.957,3.95694 a 21.86652,21.86652 0 0 0 -3.45303,-1.41263 v -5.61737 h -6.60867 z"
                   id="svg_3"
                   inkscape:connector-curvature="0"
                   style="fill:#007f7f" />
                <path
                   stroke="null"
                   class="gear__part gear__part--2"
                   d="m 270.07266,167.54477 -11.10263,11.10261 a 10.73913,10.73913 0 0 1 3.14737,7.59174 h 15.69565 v -6.60869 h -5.60083 a 21.86652,21.86652 0 0 0 -1.43738,-3.44476 l 3.96521,-3.96524 -4.67569,-4.67566 h 0.008 z"
                   id="svg_4"
                   inkscape:connector-curvature="0"
                   style="fill:#02667f" />
                <path
                   stroke="null"
                   class="gear__part gear__part--3"
                   d="m 262.1174,186.23912 a 10.73913,10.73913 0 0 1 -3.14737,7.59175 l 11.10263,11.1026 4.67566,-4.67564 -3.95697,-3.95697 a 21.86652,21.86652 0 0 0 1.41257,-3.45304 h 5.61743 v -6.6087 h -15.69562 z"
                   id="svg_5"
                   inkscape:connector-curvature="0"
                   style="fill:#28afaf" />
                <path
                   stroke="null"
                   class="gear__part gear__part--4"
                   d="m 258.97003,193.83087 a 10.73913,10.73913 0 0 1 -7.59173,3.14739 v 15.69564 h 6.60867 v -5.60086 a 21.86652,21.86652 0 0 0 3.44479,-1.43739 l 3.96524,3.96521 4.67566,-4.67564 -11.10263,-11.10262 z"
                   id="svg_6"
                   inkscape:connector-curvature="0"
                   style="fill:#31a5a5" />
                <path
                   stroke="null"
                   class="gear__part gear__part--5"
                   d="m 224.94351,186.23912 v 6.6087 h 5.60088 a 21.86652,21.86652 0 0 0 1.43738,3.4448 l -3.9652,3.97345 9.34303,9.34306 3.95697,-3.95695 a 21.86652,21.86652 0 0 0 3.45304,1.41259 v 5.61741 h 6.60868 v -15.69565 a 10.73913,10.73913 0 0 1 -10.73911,-10.73914 h -15.69567 z"
                   id="svg_7"
                   inkscape:connector-curvature="0"
                   style="fill:#058282" />
                <path
                   stroke="null"
                   class="gear__part gear__part--6"
                   d="m 244.76961,159.80435 v 5.60086 a 21.86652,21.86652 0 0 0 -3.44478,1.43738 l -3.96523,-3.96519 -9.34303,9.34303 3.95694,3.95697 a 21.86652,21.86652 0 0 0 -1.4126,3.45303 h -5.6174 v 6.60869 h 15.69567 A 10.73913,10.73913 0 0 1 251.3783,175.5 v -15.69565 z"
                   id="svg_8"
                   inkscape:connector-curvature="0"
                   style="fill:#00bfbf" />
              </g>
              <g
                 stroke="null"
                 id="svg_18"
                 transform="matrix(-0.70529,-0.4301,0.4301,-0.70529,303.511,601.053)">
                <path
                   stroke="null"
                   d="m 216.05864,396.40533 v 5.76676 a 22.514088,22.514088 0 0 0 -3.54678,1.47998 l -4.08268,-4.08264 -9.61973,9.61972 4.07416,4.07412 a 22.514088,22.514088 0 0 0 -1.45447,3.55533 h -5.78374 v 13.6088 h 5.76674 a 22.514088,22.514088 0 0 0 1.47995,3.54684 l -4.08264,4.09112 9.61974,9.61969 4.07415,-4.07409 a 22.514088,22.514088 0 0 0 3.5553,1.45447 v 5.78372 h 13.60884 v -5.76676 a 22.514088,22.514088 0 0 0 3.5468,-1.47998 l 4.08261,4.08265 9.61974,-9.61969 -4.07416,-4.07413 a 22.514088,22.514088 0 0 0 1.45447,-3.5553 h 5.78372 v -13.60883 h -5.76672 a 22.514088,22.514088 0 0 0 -1.47995,-3.54681 l 4.09115,-4.08267 -9.6197,-9.61972 -4.07416,4.07416 a 22.514088,22.514088 0 0 0 -3.55528,-1.45444 v -5.78378 h -13.60885 l -0.009,-0.009 z m 6.80441,16.1605 a 11.057165,11.057165 0 0 1 11.05716,11.05715 11.057165,11.057165 0 0 1 -11.05716,11.05716 11.057165,11.057165 0 0 1 -11.05716,-11.05716 11.057165,11.057165 0 0 1 11.05716,-11.05715 z"
                   id="svg_11"
                   inkscape:connector-curvature="0"
                   style="fill:#929497" />
                <path
                   stroke="null"
                   class="gear__part gear__part--1"
                   d="m 222.86305,396.40533 v 16.1605 a 11.057165,11.057165 0 0 1 7.81661,3.2406 l 11.43136,-11.4314 -4.81413,-4.81409 -4.07413,4.0741 a 22.514088,22.514088 0 0 0 -3.55528,-1.45447 v -5.78375 h -6.80443 z"
                   id="svg_12"
                   inkscape:connector-curvature="0"
                   style="fill:#007f7f" />
                <path
                   stroke="null"
                   class="gear__part gear__part--2"
                   d="m 242.11102,404.37503 -11.43136,11.4314 a 11.057165,11.057165 0 0 1 3.24055,7.81656 h 16.16045 v -6.80439 h -5.76673 a 22.514088,22.514088 0 0 0 -1.47995,-3.54678 l 4.08265,-4.08267 -4.81415,-4.81412 z"
                   id="svg_13"
                   inkscape:connector-curvature="0"
                   style="fill:#02667f" />
                <path
                   stroke="null"
                   class="gear__part gear__part--3"
                   d="m 233.92021,423.62299 a 11.057165,11.057165 0 0 1 -3.24055,7.81655 l 11.43136,11.43146 4.81412,-4.81414 -4.07416,-4.07413 a 22.514088,22.514088 0 0 0 1.45444,-3.55533 h 5.78375 v -6.80441 h -16.16045 -0.009 z"
                   id="svg_14"
                   inkscape:connector-curvature="0"
                   style="fill:#28afaf" />
                <path
                   stroke="null"
                   class="gear__part gear__part--4"
                   d="m 230.67966,431.43954 a 11.057165,11.057165 0 0 1 -7.81661,3.24061 v 16.16049 h 6.80443 v -5.76676 a 22.514088,22.514088 0 0 0 3.5468,-1.47991 l 4.08261,4.08258 4.81413,-4.81409 -11.43136,-11.43143 v 0.009 z"
                   id="svg_15"
                   inkscape:connector-curvature="0"
                   style="fill:#31a5a5" />
                <path
                   stroke="null"
                   class="gear__part gear__part--5"
                   d="m 195.6454,423.62299 v 6.80441 h 5.76674 a 22.514088,22.514088 0 0 0 1.47995,3.54684 l -4.08264,4.09113 9.61973,9.61969 4.07416,-4.0741 a 22.514088,22.514088 0 0 0 3.5553,1.45447 v 5.78372 h 6.80441 V 434.68866 A 11.057165,11.057165 0 0 1 211.80589,423.6315 H 195.6454 Z"
                   id="svg_16"
                   inkscape:connector-curvature="0"
                   style="fill:#058282" />
                <path
                   stroke="null"
                   class="gear__part gear__part--6"
                   d="m 216.05864,396.40533 v 5.76676 a 22.514088,22.514088 0 0 0 -3.54678,1.47998 l -4.08268,-4.08264 -9.61973,9.61972 4.07413,4.07412 a 22.514088,22.514088 0 0 0 -1.45443,3.55533 h -5.78375 v 6.80438 h 16.16049 a 11.057165,11.057165 0 0 1 11.05716,-11.05716 v -16.16049 z"
                   id="svg_17"
                   inkscape:connector-curvature="0"
                   style="fill:#00bfbf" />
              </g>
              <g
                 stroke="null"
                 id="svg_26"
                 transform="matrix(0.0743318,0.822736,-0.822736,0.0743318,511.511,-89.597)">
                <path
                   stroke="null"
                   d="m 249.49293,251.4816 v 5.767 a 22.514099,22.514099 0 0 0 -3.54701,1.48001 l -4.08297,-4.08301 -9.61902,9.61999 4.074,4.07398 a 22.514099,22.514099 0 0 0 -1.45499,3.55499 h -5.783 v 13.60901 h 5.76601 a 22.514099,22.514099 0 0 0 1.47999,3.547 l -4.08201,4.091 9.61901,9.62 4.07499,-4.07401 a 22.514099,22.514099 0 0 0 3.555,1.45401 v 5.784 h 13.609 v -5.767 a 22.514099,22.514099 0 0 0 3.547,-1.48001 l 4.082,4.08301 9.61999,-9.62 -4.07397,-4.074 a 22.514099,22.514099 0 0 0 1.45398,-3.555 h 5.78399 v -13.60901 h -5.767 a 22.514099,22.514099 0 0 0 -1.47998,-3.54699 l 4.09101,-4.08298 -9.61902,-9.61899 -4.07401,4.07401 a 22.514099,22.514099 0 0 0 -3.556,-1.45502 v -5.78299 h -13.60897 z m 6.80401,16.16095 a 11.0572,11.0572 0 0 1 11.057,11.057 11.0572,11.0572 0 0 1 -11.057,11.05701 11.0572,11.0572 0 0 1 -11.057,-11.05701 11.0572,11.0572 0 0 1 11.057,-11.057 z"
                   id="svg_19"
                   inkscape:connector-curvature="0"
                   style="fill:#929497" />
                <path
                   stroke="null"
                   class="gear__part gear__part--1"
                   d="m 256.29694,251.4816 v 16.16095 a 11.0572,11.0572 0 0 1 7.81698,3.24002 l 11.431,-11.43097 -4.81399,-4.814 -4.07401,4.07398 a 22.514099,22.514099 0 0 0 -3.55499,-1.45499 v -5.78299 h -6.80499 z"
                   id="svg_20"
                   inkscape:connector-curvature="0"
                   style="fill:#007f7f" />
                <path
                   stroke="null"
                   class="gear__part gear__part--2"
                   d="m 275.54492,259.4516 -11.431,11.43097 a 11.0572,11.0572 0 0 1 3.24002,7.81698 h 16.16098 v -6.80499 h -5.767 a 22.514099,22.514099 0 0 0 -1.47998,-3.54599 l 4.08298,-4.08298 -4.81399,-4.81399 z"
                   id="svg_21"
                   inkscape:connector-curvature="0"
                   style="fill:#02667f" />
                <path
                   stroke="null"
                   class="gear__part gear__part--3"
                   d="m 267.35394,278.69955 a 11.0572,11.0572 0 0 1 -3.24002,7.81601 l 11.431,11.43201 4.81403,-4.81399 -4.07401,-4.07502 a 22.514099,22.514099 0 0 0 1.45499,-3.55499 h 5.78302 v -6.80402 h -16.16 z"
                   id="svg_22"
                   inkscape:connector-curvature="0"
                   style="fill:#28afaf" />
                <path
                   stroke="null"
                   class="gear__part gear__part--4"
                   d="m 264.11392,286.51556 a 11.0572,11.0572 0 0 1 -7.81698,3.241 v 16.16 h 6.80499 v -5.76599 a 22.514099,22.514099 0 0 0 3.547,-1.48001 l 4.082,4.082 4.81399,-4.81399 -11.431,-11.431 v 0.008 z"
                   id="svg_23"
                   inkscape:connector-curvature="0"
                   style="fill:#31a5a5" />
                <path
                   stroke="null"
                   class="gear__part gear__part--5"
                   d="m 229.07994,278.69955 v 6.80402 h 5.76601 a 22.514099,22.514099 0 0 0 1.47999,3.547 l -4.08201,4.091 9.61902,9.61999 4.07498,-4.074 a 22.514099,22.514099 0 0 0 3.55501,1.45401 v 5.784 h 6.804 v -16.16101 a 11.0572,11.0572 0 0 1 -11.057,-11.05701 h -16.16 z"
                   id="svg_24"
                   inkscape:connector-curvature="0"
                   style="fill:#058282" />
                <path
                   stroke="null"
                   class="gear__part gear__part--6"
                   d="m 249.49293,251.4816 v 5.767 a 22.514099,22.514099 0 0 0 -3.54701,1.48001 l -4.08297,-4.08301 -9.61902,9.61999 4.074,4.07398 a 22.514099,22.514099 0 0 0 -1.45499,3.55499 h -5.783 v 6.805 h 16.16 a 11.0572,11.0572 0 0 1 11.057,-11.05701 V 251.4816 Z"
                   id="svg_25"
                   inkscape:connector-curvature="0"
                   style="fill:#00bfbf" />
              </g>
              <g
                 stroke="null"
                 id="svg_34"
                 transform="matrix(0.366588,-0.605394,0.605394,0.366588,-31.0758,210.427)">
                <path
                   stroke="null"
                   d="m 312.96393,231.91553 v 5.76677 a 22.514088,22.514088 0 0 0 -3.54682,1.47995 l -4.08264,-4.08266 -9.61975,9.61972 4.07416,4.07416 a 22.514088,22.514088 0 0 0 -1.45447,3.55531 h -5.78375 v 13.60887 h 5.76678 a 22.514088,22.514088 0 0 0 1.47992,3.54678 l -4.08264,4.09113 9.61975,9.61972 4.07416,-4.0741 a 22.514088,22.514088 0 0 0 3.5553,1.45447 v 5.78369 h 13.60879 v -5.76672 a 22.514088,22.514088 0 0 0 3.54685,-1.47998 l 4.08258,4.08264 9.61975,-9.61972 -4.07413,-4.07413 a 22.514088,22.514088 0 0 0 1.45444,-3.5553 h 5.78375 v -13.60885 h -5.76672 a 22.514088,22.514088 0 0 0 -1.47998,-3.54682 l 4.09118,-4.08267 -9.61972,-9.61972 -4.07418,4.07418 a 22.514088,22.514088 0 0 0 -3.5553,-1.45446 v -5.78375 h -13.60883 z m 6.80438,16.16049 a 11.057165,11.057165 0 0 1 11.05716,11.05719 11.057165,11.057165 0 0 1 -11.05716,11.05713 11.057165,11.057165 0 0 1 -11.05713,-11.05713 11.057165,11.057165 0 0 1 11.05713,-11.05719 z"
                   id="svg_27"
                   inkscape:connector-curvature="0"
                   style="fill:#929497" />
                <path
                   stroke="null"
                   class="gear__part gear__part--1"
                   d="m 319.76831,231.91553 v 16.16049 a 11.057165,11.057165 0 0 1 7.81659,3.24057 l 11.4314,-11.4314 -4.81415,-4.81408 -4.0741,4.07414 a 22.514088,22.514088 0 0 0 -3.55533,-1.45447 v -5.78377 h -6.80441 v 0.009 z"
                   id="svg_28"
                   inkscape:connector-curvature="0"
                   style="fill:#007f7f" />
                <path
                   stroke="null"
                   class="gear__part gear__part--2"
                   d="m 339.0163,239.88519 -11.4314,11.4314 a 11.057165,11.057165 0 0 1 3.24057,7.81662 h 16.16049 v -6.80443 h -5.76672 a 22.514088,22.514088 0 0 0 -1.47998,-3.5468 l 4.08264,-4.08267 -4.81415,-4.81412 z"
                   id="svg_29"
                   inkscape:connector-curvature="0"
                   style="fill:#02667f" />
                <path
                   stroke="null"
                   class="gear__part gear__part--3"
                   d="m 330.82547,259.13321 a 11.057165,11.057165 0 0 1 -3.24057,7.81659 l 11.4314,11.43139 4.81414,-4.81411 -4.07418,-4.07419 a 22.514088,22.514088 0 0 0 1.45446,-3.55524 h 5.78376 v -6.80444 h -16.16046 z"
                   id="svg_30"
                   inkscape:connector-curvature="0"
                   style="fill:#28afaf" />
                <path
                   stroke="null"
                   class="gear__part gear__part--4"
                   d="m 327.5849,266.9498 a 11.057165,11.057165 0 0 1 -7.81659,3.24054 v 16.16052 h 6.80441 v -5.76675 a 22.514088,22.514088 0 0 0 3.54685,-1.47995 l 4.08258,4.08264 4.81415,-4.81409 -11.4314,-11.43142 z"
                   id="svg_31"
                   inkscape:connector-curvature="0"
                   style="fill:#31a5a5" />
                <path
                   stroke="null"
                   class="gear__part gear__part--5"
                   d="m 292.55066,259.13321 v 6.80444 h 5.76678 a 22.514088,22.514088 0 0 0 1.47992,3.54679 l -4.08264,4.09112 9.61975,9.61972 4.07416,-4.0741 a 22.514088,22.514088 0 0 0 3.5553,1.45447 v 5.78369 h 6.80438 v -16.16049 a 11.057165,11.057165 0 0 1 -11.05713,-11.05713 h -16.16052 v -0.009 z"
                   id="svg_32"
                   inkscape:connector-curvature="0"
                   style="fill:#058282" />
                <path
                   stroke="null"
                   class="gear__part gear__part--6"
                   d="m 312.96393,231.91553 v 5.76677 a 22.514088,22.514088 0 0 0 -3.54682,1.47995 l -4.08264,-4.08266 -9.61975,9.61972 4.07416,4.07416 a 22.514088,22.514088 0 0 0 -1.45447,3.55531 h -5.78375 v 6.80443 h 16.16052 a 11.057165,11.057165 0 0 1 11.05713,-11.05719 v -16.16049 z"
                   id="svg_33"
                   inkscape:connector-curvature="0"
                   style="fill:#00bfbf" />
              </g>
              <g
                 stroke="null"
                 id="svg_50"
                 transform="matrix(-0.344805,-0.893454,0.893454,-0.344805,195.241,508.118)">
                <path
                   stroke="null"
                   d="m 363.42658,255.20783 v 5.76675 a 22.514088,22.514088 0 0 0 -3.54676,1.47995 l -4.08267,-4.08264 -9.61972,9.61972 4.07419,4.07415 a 22.514088,22.514088 0 0 0 -1.45447,3.5553 h -5.78378 v 13.60886 h 5.76672 a 22.514088,22.514088 0 0 0 1.47998,3.54678 l -4.08264,4.09113 9.61972,9.61972 4.07413,-4.07413 a 22.514088,22.514088 0 0 0 3.55529,1.45447 v 5.78372 h 13.60883 v -5.76675 a 22.514088,22.514088 0 0 0 3.54687,-1.47995 l 4.08259,4.08264 9.61975,-9.61972 -4.07416,-4.07413 a 22.514088,22.514088 0 0 0 1.45447,-3.55527 h 5.78369 v -13.60885 h -5.7667 a 22.514088,22.514088 0 0 0 -1.47994,-3.54682 l 4.09118,-4.08267 -9.61972,-9.61972 -4.07419,4.07416 a 22.514088,22.514088 0 0 0 -3.55529,-1.45444 v -5.78375 h -13.60883 l -0.009,-0.009 z m 6.80444,16.16049 a 11.057165,11.057165 0 0 1 11.05716,11.05713 11.057165,11.057165 0 0 1 -11.05716,11.05719 11.057165,11.057165 0 0 1 -11.05713,-11.05719 11.057165,11.057165 0 0 1 11.05713,-11.05713 z"
                   id="svg_43"
                   inkscape:connector-curvature="0"
                   style="fill:#929497" />
                <path
                   stroke="null"
                   class="gear__part gear__part--1"
                   d="m 370.23102,255.20783 v 16.16049 a 11.057165,11.057165 0 0 1 7.81659,3.24057 l 11.43139,-11.4314 -4.81414,-4.81409 -4.07416,4.07413 a 22.514088,22.514088 0 0 0 -3.5553,-1.45447 v -5.78377 h -6.80438 z"
                   id="svg_44"
                   inkscape:connector-curvature="0"
                   style="fill:#007f7f" />
                <path
                   stroke="null"
                   class="gear__part gear__part--2"
                   d="m 389.479,263.17749 -11.43139,11.4314 a 11.057165,11.057165 0 0 1 3.24057,7.81655 h 16.16043 v -6.80438 h -5.76669 a 22.514088,22.514088 0 0 0 -1.47995,-3.54678 l 4.08264,-4.08267 -4.81415,-4.81412 h 0.009 z"
                   id="svg_45"
                   inkscape:connector-curvature="0"
                   style="fill:#02667f" />
                <path
                   stroke="null"
                   class="gear__part gear__part--3"
                   d="m 381.28818,282.42545 a 11.057165,11.057165 0 0 1 -3.24057,7.81662 l 11.43139,11.43139 4.81415,-4.81411 -4.07422,-4.07416 a 22.514088,22.514088 0 0 0 1.4545,-3.55527 h 5.78375 v -6.80447 h -16.16049 z"
                   id="svg_46"
                   inkscape:connector-curvature="0"
                   style="fill:#28afaf" />
                <path
                   stroke="null"
                   class="gear__part gear__part--4"
                   d="m 378.04761,290.24207 a 11.057165,11.057165 0 0 1 -7.81659,3.24057 v 16.16046 h 6.80438 v -5.76673 a 22.514088,22.514088 0 0 0 3.54687,-1.47995 l 4.08259,4.08261 4.81414,-4.81408 -11.43139,-11.4314 v 0.009 z"
                   id="svg_47"
                   inkscape:connector-curvature="0"
                   style="fill:#31a5a5" />
                <path
                   stroke="null"
                   class="gear__part gear__part--5"
                   d="m 343.01337,282.42545 v 6.80447 h 5.76672 a 22.514088,22.514088 0 0 0 1.47998,3.54678 l -4.08264,4.09113 9.61972,9.61972 4.07413,-4.07413 a 22.514088,22.514088 0 0 0 3.55529,1.45447 v 5.78372 h 6.80445 v -16.16046 a 11.057165,11.057165 0 0 1 -11.05713,-11.05719 h -16.16052 v -0.009 z"
                   id="svg_48"
                   inkscape:connector-curvature="0"
                   style="fill:#058282" />
                <path
                   stroke="null"
                   class="gear__part gear__part--6"
                   d="m 363.42658,255.20783 v 5.76675 a 22.514088,22.514088 0 0 0 -3.54676,1.47995 l -4.08267,-4.08264 -9.61972,9.61972 4.07413,4.07415 a 22.514088,22.514088 0 0 0 -1.45441,3.5553 h -5.78378 v 6.80438 h 16.16052 a 11.057165,11.057165 0 0 1 11.05713,-11.05712 v -16.1605 h -6.80444 z"
                   id="svg_49"
                   inkscape:connector-curvature="0"
                   style="fill:#00bfbf" />
              </g>
            </g>
          </g>
          <rect
             transform="scale(1,-1)"
             y="-289.10666"
             x="222.87537"
             height="26.661667"
             width="130.24927"
             id="rect7922"
             style="fill:#ccf3f3;fill-opacity:1;stroke:#ccf3f3;stroke-width:2.59542537;stroke-linecap:round;stroke-linejoin:bevel;stroke-miterlimit:4;stroke-dasharray:none;stroke-opacity:1" />
        </g>
        <g
           id="svg_52"
           style="font-style:normal;font-variant:normal;font-weight:normal;font-stretch:normal;font-size:12px;line-height:1;font-family:'Source Code Pro for Powerline';-inkscape-font-specification:'Source Code Pro for Powerline';letter-spacing:0.01px;text-anchor:start;fill:#058282;fill-opacity:1;stroke-width:0"
           transform="matrix(0.92936067,-0.01622205,0.01626387,0.93175632,26.75359,16.074706)"
           aria-label="Framework for Acyclic Directed Graphs Yielding Parallel Computations of Great Efficiency">
          <path
             id="path7647"
             style="font-style:normal;font-variant:normal;font-weight:normal;font-stretch:normal;font-family:'Source Code Pro for Powerline';-inkscape-font-specification:'Source Code Pro for Powerline';letter-spacing:0.15000001px;fill:#058282;fill-opacity:1"
             d="m 176.40807,263.85369 -0.77577,-0.64361 -2.25265,2.71521 -2.49356,-2.06876 -0.53634,0.64648 2.49356,2.06876 -1.70098,2.05026 -2.94609,-2.44419 -0.53635,0.64648 3.72188,3.0878 z"
             inkscape:connector-curvature="0" />
          <path
             id="path7649"
             style="font-style:normal;font-variant:normal;font-weight:normal;font-stretch:normal;font-family:'Source Code Pro for Powerline';-inkscape-font-specification:'Source Code Pro for Powerline';letter-spacing:0.15000001px;fill:#058282;fill-opacity:1"
             d="m 170.71009,258.97533 -0.71615,-0.67482 -2.34542,2.48906 c -1.33773,0.40477 -2.25307,0.1688 -2.89062,-0.43195 -0.33187,-0.31273 -0.44793,-0.50453 -0.64611,-0.88913 l -0.75024,0.46372 c 0.13857,0.37789 0.35943,0.66844 0.67383,0.9647 0.78602,0.74066 1.85302,0.93817 2.94033,0.67666 l 0.0262,0.0247 -0.88526,1.06196 0.59388,0.55961 z"
             inkscape:connector-curvature="0" />
          <path
             id="path7651"
             style="font-style:normal;font-variant:normal;font-weight:normal;font-stretch:normal;font-family:'Source Code Pro for Powerline';-inkscape-font-specification:'Source Code Pro for Powerline';letter-spacing:0.15000001px;fill:#058282;fill-opacity:1"
             d="m 164.72801,252.88149 c -0.56623,-0.60412 -1.44766,-0.91282 -2.25852,-1.04095 l -0.0246,-0.0263 0.52041,-0.6029 -0.54982,-0.58661 -2.60912,2.44546 c -1.0594,0.99295 -1.22588,2.20159 -0.13445,3.36607 0.69753,0.74421 1.70315,1.15032 2.38543,1.31673 l 0.2277,-0.73972 c -0.61443,-0.16422 -1.38588,-0.46087 -1.90288,-1.01246 -0.77138,-0.82301 -0.55188,-1.57149 0.01,-2.13062 2.23488,2.03349 3.52775,2.48286 4.48209,1.58838 0.76172,-0.71394 0.60099,-1.78036 -0.14578,-2.57711 z m -0.7584,0.349 c 0.45955,0.4903 0.67669,1.12557 0.19515,1.57691 -0.56035,0.5252 -1.44452,0.30131 -3.30026,-1.38031 l 1.12069,-1.0504 c 0.85409,0.10406 1.53308,0.37225 1.98442,0.8538 z"
             inkscape:connector-curvature="0" />
          <path
             id="path7653"
             style="font-style:normal;font-variant:normal;font-weight:normal;font-stretch:normal;font-family:'Source Code Pro for Powerline';-inkscape-font-specification:'Source Code Pro for Powerline';letter-spacing:0.15000001px;fill:#058282;fill-opacity:1"
             d="m 161.17712,249.23323 -0.62797,-0.75757 -3.25201,2.69566 c -0.64573,0.16118 -1.04517,0.14938 -1.30555,-0.16473 -0.27569,-0.3326 -0.11498,-0.68402 0.40238,-1.11288 l 3.15963,-2.61908 -0.58202,-0.70214 -3.25201,2.69566 c -0.66105,0.14271 -1.02986,0.16786 -1.29024,-0.14625 -0.27569,-0.33259 -0.1303,-0.7025 0.38707,-1.13135 l 3.15962,-2.61908 -0.62796,-0.75758 -3.21506,2.66503 c -0.89615,0.74284 -1.07948,1.51827 -0.55872,2.1465 0.42885,0.51736 0.95423,0.54946 1.64907,0.40992 -0.41015,0.5582 -0.43909,1.04979 -0.0715,1.49325 0.42886,0.51736 0.945,0.55712 1.55219,0.44347 l 0.0153,0.0185 -0.53767,0.55479 0.50544,0.60975 z"
             inkscape:connector-curvature="0" />
          <path
             id="path7655"
             style="font-style:normal;font-variant:normal;font-weight:normal;font-stretch:normal;font-family:'Source Code Pro for Powerline';-inkscape-font-specification:'Source Code Pro for Powerline';letter-spacing:0.15000001px;fill:#058282;fill-opacity:1"
             d="m 154.71211,240.82957 c -0.55327,-0.75497 -1.24471,-1.17066 -1.89492,-1.40828 l -0.30988,0.67341 c 0.58312,0.22727 1.08363,0.54484 1.49504,1.10623 0.71641,0.9776 0.72764,2.1298 -0.26614,3.00684 l -2.71669,-3.70713 c -0.14001,0.0728 -0.32842,0.18117 -0.51233,0.31594 -1.32605,0.97177 -1.62521,2.41094 -0.63217,3.76603 0.92212,1.25829 2.68832,1.71949 4.21763,0.59877 1.56803,-1.1491 1.65506,-2.93864 0.61946,-4.35181 z m -4.22213,3.27262 c -0.58873,-0.80337 -0.50457,-1.68329 0.41369,-2.46037 l 2.19889,3.00055 c -1.0356,0.53576 -2.04512,0.23416 -2.61258,-0.54018 z"
             inkscape:connector-curvature="0" />
          <path
             id="path7657"
             style="font-style:normal;font-variant:normal;font-weight:normal;font-stretch:normal;font-family:'Source Code Pro for Powerline';-inkscape-font-specification:'Source Code Pro for Powerline';letter-spacing:0.15000001px;fill:#058282;fill-opacity:1"
             d="m 151.85548,237.03044 -0.69056,-1.06822 -2.6898,0.96722 c -0.39476,0.14088 -0.9306,0.37297 -1.60753,0.69626 l -0.0261,-0.0403 c 0.57269,-0.48454 1.0043,-0.87786 1.29482,-1.17999 l 1.97318,-2.07576 -0.69056,-1.06823 -5.57525,2.11809 0.49512,0.7659 3.21974,-1.25265 c 0.5222,-0.20898 0.97804,-0.43221 1.49373,-0.65127 l 0.026,0.0403 c -0.42448,0.36014 -0.76305,0.76477 -1.15495,1.1753 l -2.16171,2.22622 0.53421,0.82636 2.93044,-1.03705 c 0.52516,-0.18231 1.03016,-0.35159 1.53281,-0.5908 l 0.0261,0.0403 c -0.42448,0.36014 -0.80214,0.7043 -1.20707,1.09468 l -2.46404,2.42165 0.53421,0.82637 z"
             inkscape:connector-curvature="0" />
          <path
             id="path7659"
             style="font-style:normal;font-variant:normal;font-weight:normal;font-stretch:normal;font-family:'Source Code Pro for Powerline';-inkscape-font-specification:'Source Code Pro for Powerline';letter-spacing:0.15000001px;fill:#058282;fill-opacity:1"
             d="m 146.96147,228.80459 c -0.75844,-1.33568 -2.39254,-1.95335 -4.07258,-0.99936 -1.70092,0.96583 -2.00773,2.68561 -1.24929,4.0213 0.75845,1.33568 2.39255,1.95335 4.09346,0.98752 1.68004,-0.95399 1.98686,-2.67377 1.22841,-4.00946 z m -0.70958,0.40293 c 0.55106,0.97046 0.1358,2.06183 -1.02249,2.71955 -1.16872,0.66364 -2.32916,0.46699 -2.88022,-0.50347 -0.55105,-0.97046 -0.12536,-2.06776 1.04336,-2.7314 1.15829,-0.65771 2.30829,-0.45514 2.85935,0.51532 z"
             inkscape:connector-curvature="0" />
          <path
             id="path7661"
             style="font-style:normal;font-variant:normal;font-weight:normal;font-stretch:normal;font-family:'Source Code Pro for Powerline';-inkscape-font-specification:'Source Code Pro for Powerline';letter-spacing:0.15000001px;fill:#058282;fill-opacity:1"
             d="m 144.21269,224.04479 -0.43681,-0.88173 -3.06456,1.5182 c -1.395,-0.0856 -2.17117,-0.62516 -2.56004,-1.41011 -0.20242,-0.40861 -0.24455,-0.6288 -0.29663,-1.05832 l -0.86466,0.17392 c -0.001,0.40249 0.10456,0.75171 0.29633,1.13881 0.47943,0.96775 1.41117,1.52394 2.52157,1.65683 l 0.016,0.0323 -1.19928,0.68787 0.36223,0.73119 z"
             inkscape:connector-curvature="0" />
          <path
             id="path7663"
             style="font-style:normal;font-variant:normal;font-weight:normal;font-stretch:normal;font-family:'Source Code Pro for Powerline';-inkscape-font-specification:'Source Code Pro for Powerline';letter-spacing:0.15000001px;fill:#058282;fill-opacity:1"
             d="m 141.23292,217.85961 -0.38712,-0.90465 -1.45627,0.62316 -1.78956,-0.73526 1.85788,-3.13142 -0.43433,-1.01497 -2.21594,3.81979 -3.02304,-1.23858 0.44377,1.03704 4.06117,1.68192 0.0189,0.0441 -5.31759,2.27549 0.38711,0.90465 z"
             inkscape:connector-curvature="0" />
          <path
             id="path7665"
             style="font-style:normal;font-variant:normal;font-weight:normal;font-stretch:normal;font-family:'Source Code Pro for Powerline';-inkscape-font-specification:'Source Code Pro for Powerline';letter-spacing:0.15000001px;fill:#058282;fill-opacity:1"
             d="m 135.49228,202.58927 -0.28254,-0.93003 -4.81089,1.46152 -0.71158,-2.3423 -0.76928,0.23371 0.71157,2.3423 -0.5052,0.15347 c -0.90706,0.27557 -1.58377,0.0297 -1.88723,-0.96927 -0.1465,-0.48224 -0.19723,-0.85562 -0.13008,-1.37768 l -0.77815,-0.002 c -0.0577,0.59444 -5.8e-4,1.154 0.16685,1.70513 0.46741,1.53857 1.57926,1.97837 2.9456,1.56328 l 0.47075,-0.14301 0.54226,1.57853 0.71188,-0.21626 -0.48485,-1.59598 z"
             inkscape:connector-curvature="0" />
          <path
             id="path7667"
             style="font-style:normal;font-variant:normal;font-weight:normal;font-stretch:normal;font-family:'Source Code Pro for Powerline';-inkscape-font-specification:'Source Code Pro for Powerline';letter-spacing:0.15000001px;fill:#058282;fill-opacity:1"
             d="m 133.48627,194.80636 c -0.36628,-1.49169 -1.77059,-2.53079 -3.64685,-2.07007 -1.89957,0.46645 -2.66287,2.0378 -2.29659,3.52949 0.36629,1.49169 1.77059,2.53078 3.67016,2.06434 1.87627,-0.46072 2.63957,-2.03208 2.27328,-3.52376 z m -0.79246,0.19459 c 0.26613,1.0838 -0.43048,2.02096 -1.72405,2.3386 -1.30523,0.3205 -2.36834,-0.18456 -2.63447,-1.26836 -0.26613,-1.0838 0.44214,-2.02382 1.74737,-2.34432 1.29357,-0.31764 2.34502,0.19027 2.61115,1.27408 z"
             inkscape:connector-curvature="0" />
          <path
             id="path7669"
             style="font-style:normal;font-variant:normal;font-weight:normal;font-stretch:normal;font-family:'Source Code Pro for Powerline';-inkscape-font-specification:'Source Code Pro for Powerline';letter-spacing:0.15000001px;fill:#058282;fill-opacity:1"
             d="m 132.13159,189.47927 -0.1827,-0.96689 -3.36053,0.63498 c -1.32015,-0.45887 -1.92196,-1.18781 -2.0846,-2.04857 -0.0847,-0.44808 -0.0658,-0.67146 -7e-5,-1.0991 l -0.87952,-0.0658 c -0.11003,0.38716 -0.10215,0.75204 -0.0219,1.17653 0.20052,1.06122 0.94763,1.84819 1.98098,2.27577 l 0.007,0.0354 -1.34041,0.33876 0.1515,0.80181 z"
             inkscape:connector-curvature="0" />
          <path
             id="path7671"
             style="font-style:normal;font-variant:normal;font-weight:normal;font-stretch:normal;font-family:'Source Code Pro for Powerline';-inkscape-font-specification:'Source Code Pro for Powerline';letter-spacing:0.15000001px;fill:#058282;fill-opacity:1"
             d="m 125.52073,174.26643 c -0.89489,-0.2067 -1.77594,-0.39041 -2.70485,-0.57037 l -0.004,-0.0478 c 0.89046,-0.31054 1.73119,-0.64125 2.58294,-0.98486 l 1.16726,-0.46464 0.1838,2.34481 z m 4.57808,2.04851 -0.0797,-1.01688 -2.45174,-0.56614 -0.22318,-2.84726 2.33452,-0.92928 -0.0825,-1.05277 -7.64069,3.25905 0.0881,1.12455 z"
             inkscape:connector-curvature="0" />
          <path
             id="path7673"
             style="font-style:normal;font-variant:normal;font-weight:normal;font-stretch:normal;font-family:'Source Code Pro for Powerline';-inkscape-font-specification:'Source Code Pro for Powerline';letter-spacing:0.15000001px;fill:#058282;fill-opacity:1"
             d="m 129.60534,165.21862 c -0.0202,-0.86377 -0.37486,-1.6597 -0.96583,-2.29408 l -0.62546,0.45873 c 0.41909,0.47035 0.75702,1.06262 0.77383,1.78242 0.0314,1.34363 -0.84736,2.2644 -2.179,2.2955 -1.34363,0.0314 -2.27696,-0.87107 -2.30834,-2.2147 -0.0143,-0.61184 0.22587,-1.12158 0.63455,-1.61126 l -0.64731,-0.47701 c -0.45667,0.49079 -0.82431,1.19557 -0.80218,2.14331 0.0412,1.76352 1.19163,3.22506 3.1471,3.17939 1.93147,-0.0451 3.01522,-1.4388 2.97264,-3.2623 z"
             inkscape:connector-curvature="0" />
          <path
             id="path7675"
             style="font-style:normal;font-variant:normal;font-weight:normal;font-stretch:normal;font-family:'Source Code Pro for Powerline';-inkscape-font-specification:'Source Code Pro for Powerline';letter-spacing:0.15000001px;fill:#058282;fill-opacity:1"
             d="m 131.9476,160.53712 c 0.0425,-1.31932 -0.80993,-2.06712 -1.94744,-2.53595 l -6.22613,-2.7697 -0.0301,0.93552 3.18542,1.37517 c 0.52155,0.20888 1.1259,0.45645 1.67105,0.6781 l -0.002,0.048 c -0.57143,0.22174 -1.19122,0.45392 -1.71429,0.6652 l -3.27226,1.32344 -0.032,0.99548 5.92859,-2.53462 0.42599,0.19381 c 0.71036,0.31101 1.22226,0.81973 1.19601,1.63531 -0.006,0.17991 -0.0479,0.37065 -0.10093,0.52503 l 0.77303,0.22898 c 0.0785,-0.20158 0.13576,-0.48789 0.14464,-0.76374 z"
             inkscape:connector-curvature="0" />
          <path
             id="path7677"
             style="font-style:normal;font-variant:normal;font-weight:normal;font-stretch:normal;font-family:'Source Code Pro for Powerline';-inkscape-font-specification:'Source Code Pro for Powerline';letter-spacing:0.15000001px;fill:#058282;fill-opacity:1"
             d="m 130.14054,150.56135 c 0.0764,-0.86062 -0.18726,-1.69117 -0.70373,-2.38754 l -0.67276,0.38605 c 0.36398,0.51418 0.63368,1.14047 0.57005,1.85765 -0.11879,1.33874 -1.09482,2.15567 -2.42161,2.03794 -1.33874,-0.11879 -2.1655,-1.11978 -2.04671,-2.45852 0.0541,-0.6096 0.34965,-1.08936 0.81043,-1.53036 l -0.59002,-0.54629 c -0.5086,0.43676 -0.95261,1.0961 -1.0364,2.04039 -0.15591,1.75709 0.82421,3.33791 2.77255,3.51079 1.92444,0.17076 3.15698,-1.09325 3.3182,-2.91011 z"
             inkscape:connector-curvature="0" />
          <path
             id="path7679"
             style="font-style:normal;font-variant:normal;font-weight:normal;font-stretch:normal;font-family:'Source Code Pro for Powerline';-inkscape-font-specification:'Source Code Pro for Powerline';letter-spacing:0.15000001px;fill:#058282;fill-opacity:1"
             d="m 131.13488,142.5549 c 0.0924,-0.62925 0.0294,-1.02661 -0.1177,-1.594 l -0.76085,0.14299 c 0.12057,0.41795 0.15139,0.78633 0.10258,1.11877 -0.1011,0.68862 -0.52353,1.08749 -1.36649,0.96372 l -6.58936,-0.96744 -0.4445,3.02754 0.79547,0.11679 0.30157,-2.05398 5.72265,0.8402 c 1.36536,0.20046 2.17708,-0.3717 2.35663,-1.59459 z"
             inkscape:connector-curvature="0" />
          <path
             id="path7681"
             style="font-style:normal;font-variant:normal;font-weight:normal;font-stretch:normal;font-family:'Source Code Pro for Powerline';-inkscape-font-specification:'Source Code Pro for Powerline';letter-spacing:0.15000001px;fill:#058282;fill-opacity:1"
             d="m 132.12225,136.38401 0.19945,-0.96358 -5.71093,-1.18213 -0.74917,3.61928 0.78731,0.16297 0.54971,-2.65571 z m -6.83169,-1.80626 c 0.09,-0.43479 -0.13324,-0.83637 -0.59152,-0.93124 -0.44654,-0.0924 -0.8226,0.18511 -0.9126,0.61989 -0.09,0.43479 0.14499,0.8388 0.59153,0.93123 0.45828,0.0949 0.82259,-0.1851 0.91259,-0.61988 z"
             inkscape:connector-curvature="0" />
          <path
             id="path7683"
             style="font-style:normal;font-variant:normal;font-weight:normal;font-stretch:normal;font-family:'Source Code Pro for Powerline';-inkscape-font-specification:'Source Code Pro for Powerline';letter-spacing:0.15000001px;fill:#058282;fill-opacity:1"
             d="m 134.06708,128.93206 c 0.2251,-0.83417 0.11017,-1.69794 -0.27711,-2.47363 l -0.72971,0.26297 c 0.26885,0.56972 0.42534,1.23341 0.23776,1.92855 -0.35015,1.29759 -1.45355,1.93203 -2.73955,1.585 -1.29759,-0.35016 -1.93736,-1.47985 -1.5872,-2.77744 0.15944,-0.59086 0.53405,-1.0118 1.0646,-1.3658 l -0.48586,-0.64071 c -0.57689,0.34149 -1.12896,0.91341 -1.37594,1.82868 -0.45958,1.70308 0.23021,3.43044 2.11866,3.94004 1.86528,0.50335 3.29914,-0.52665 3.77435,-2.28766 z"
             inkscape:connector-curvature="0" />
          <path
             id="path7685"
             style="font-style:normal;font-variant:normal;font-weight:normal;font-stretch:normal;font-family:'Source Code Pro for Powerline';-inkscape-font-specification:'Source Code Pro for Powerline';letter-spacing:0.15000001px;fill:#058282;fill-opacity:1"
             d="m 137.51135,117.88377 0.72283,-1.85623 c 0.8404,-2.15814 -0.0579,-3.88586 -2.39496,-4.79593 -2.32588,-0.90571 -4.1001,-0.21869 -4.95792,1.98419 l -0.7054,1.8115 z m -0.39897,-1.22421 -5.81469,-2.26428 0.31787,-0.81629 c 0.65316,-1.67732 2.00414,-2.10419 3.84918,-1.38572 1.85623,0.72283 2.61867,1.97268 1.96551,3.64999 z"
             inkscape:connector-curvature="0" />
          <path
             id="path7687"
             style="font-style:normal;font-variant:normal;font-weight:normal;font-stretch:normal;font-family:'Source Code Pro for Powerline';-inkscape-font-specification:'Source Code Pro for Powerline';letter-spacing:0.15000001px;fill:#058282;fill-opacity:1"
             d="m 141.34834,108.55024 0.40785,-0.8955 -5.30745,-2.41726 -1.53193,3.36357 0.73169,0.33325 1.12407,-2.46808 z m -6.2622,-3.27405 c 0.18403,-0.40407 0.0553,-0.84511 -0.37065,-1.03909 -0.41499,-0.189 -0.84317,-0.002 -1.0272,0.40244 -0.18403,0.40407 -0.0443,0.85009 0.37066,1.03909 0.4259,0.19398 0.84316,0.002 1.02719,-0.40244 z"
             inkscape:connector-curvature="0" />
          <path
             id="path7689"
             style="font-style:normal;font-variant:normal;font-weight:normal;font-stretch:normal;font-family:'Source Code Pro for Powerline';-inkscape-font-specification:'Source Code Pro for Powerline';letter-spacing:0.15000001px;fill:#058282;fill-opacity:1"
             d="m 143.65217,103.77123 0.46328,-0.86812 -3.01725,-1.61017 c -0.74159,-1.18465 -0.75406,-2.129833 -0.34163,-2.902671 0.21469,-0.4023 0.36932,-0.564614 0.68845,-0.85677 l -0.64432,-0.602278 c -0.32829,0.232859 -0.55072,0.522216 -0.75411,0.903341 -0.50847,0.952815 -0.41909,2.034249 0.11854,3.014858 l -0.0169,0.0318 -1.25704,-0.57561 -0.38418,0.7199 z"
             inkscape:connector-curvature="0" />
          <path
             id="path7691"
             style="font-style:normal;font-variant:normal;font-weight:normal;font-stretch:normal;font-family:'Source Code Pro for Powerline';-inkscape-font-specification:'Source Code Pro for Powerline';letter-spacing:0.15000001px;fill:#058282;fill-opacity:1"
             d="m 148.49052,95.540822 c 0.49075,-0.797032 0.61515,-1.594153 0.59017,-2.285968 l -0.74055,-0.0332 c 0.009,0.625775 -0.0962,1.209069 -0.46112,1.801734 -0.63546,1.032054 -1.69844,1.476752 -2.88537,0.886851 l 2.40971,-3.913631 c -0.12026,-0.102228 -0.2916,-0.235915 -0.48575,-0.355457 -1.39992,-0.86196 -2.8457,-0.596597 -3.72654,0.833973 -0.81792,1.328386 -0.57937,3.138153 1.03513,4.132238 1.65537,1.019252 3.34573,0.42534 4.26432,-1.06654 z m -4.62267,-2.677176 c 0.52221,-0.848124 1.36895,-1.101841 2.43483,-0.544202 l -1.95043,3.167691 c -0.88658,-0.757277 -0.98774,-1.806021 -0.4844,-2.623489 z"
             inkscape:connector-curvature="0" />
          <path
             id="path7693"
             style="font-style:normal;font-variant:normal;font-weight:normal;font-stretch:normal;font-family:'Source Code Pro for Powerline';-inkscape-font-specification:'Source Code Pro for Powerline';letter-spacing:0.15000001px;fill:#058282;fill-opacity:1"
             d="m 152.65342,89.269246 c 0.49668,-0.706963 0.68395,-1.557988 0.58516,-2.419336 l -0.77565,-0.0023 c 0.0579,0.627305 -0.0219,1.304509 -0.43581,1.893645 -0.77263,1.099721 -2.02643,1.318758 -3.11633,0.553031 -1.09972,-0.772625 -1.31478,-2.052965 -0.54216,-3.152686 0.35182,-0.500766 0.84776,-0.768294 1.46736,-0.919605 l -0.23757,-0.768194 c -0.65888,0.123718 -1.37319,0.472466 -1.91817,1.248162 -1.01407,1.443383 -0.95632,3.302487 0.64417,4.426933 1.58085,1.110649 3.28043,0.632845 4.329,-0.859633 z"
             inkscape:connector-curvature="0" />
          <path
             id="path7695"
             style="font-style:normal;font-variant:normal;font-weight:normal;font-stretch:normal;font-family:'Source Code Pro for Powerline';-inkscape-font-specification:'Source Code Pro for Powerline';letter-spacing:0.15000001px;fill:#058282;fill-opacity:1"
             d="m 157.43269,82.96432 c 0.45564,-0.572899 0.68462,-1.111418 0.86301,-1.64417 l -0.69796,-0.279121 c -0.13934,0.425817 -0.32372,0.831148 -0.66732,1.26317 -0.70214,0.882828 -1.35077,0.811591 -2.16786,0.161739 l -2.1695,-1.725467 1.78522,-2.244638 -0.62925,-0.500461 -1.78522,2.244638 -1.46512,-1.165251 -0.50793,0.638642 1.38295,1.268561 -0.99878,1.352198 0.58229,0.463113 1.02333,-1.286676 2.16011,1.717998 c 1.12702,0.896347 2.23135,1.069359 3.29203,-0.264275 z"
             inkscape:connector-curvature="0" />
          <path
             id="path7697"
             style="font-style:normal;font-variant:normal;font-weight:normal;font-stretch:normal;font-family:'Source Code Pro for Powerline';-inkscape-font-specification:'Source Code Pro for Powerline';letter-spacing:0.15000001px;fill:#058282;fill-opacity:1"
             d="m 161.70354,77.974019 c 0.62441,-0.69729 0.8883,-1.459681 0.98648,-2.144949 l -0.72289,-0.164093 c -0.10192,0.617489 -0.30925,1.172804 -0.77355,1.691301 -0.80853,0.902901 -1.93355,1.151898 -2.99696,0.36072 l 3.066,-3.423869 c -0.10021,-0.121947 -0.24511,-0.28392 -0.41496,-0.436019 -1.22473,-1.096714 -2.69466,-1.092141 -3.81539,0.159404 -1.04068,1.162149 -1.12709,2.985523 0.28536,4.250346 1.44822,1.296845 3.21715,1.012341 4.38591,-0.292841 z m -4.07419,-3.455045 c 0.66444,-0.741988 1.54276,-0.841411 2.49276,-0.103466 l -2.48162,2.771277 c -0.73812,-0.902594 -0.65155,-1.952643 -0.0111,-2.667811 z"
             inkscape:connector-curvature="0" />
          <path
             id="path7699"
             style="font-style:normal;font-variant:normal;font-weight:normal;font-stretch:normal;font-family:'Source Code Pro for Powerline';-inkscape-font-specification:'Source Code Pro for Powerline';letter-spacing:0.15000001px;fill:#058282;fill-opacity:1"
             d="m 166.2664,73.166192 c 0.51037,-0.507868 0.70746,-1.296519 0.70066,-1.983846 l 0.0255,-0.02539 0.60127,0.485134 0.57841,-0.575584 -6.02671,-6.056295 -0.69749,0.694087 1.58286,1.590628 0.79582,0.731685 -0.0255,0.02539 c -0.69584,0.01527 -1.27329,0.200529 -1.76664,0.691469 -0.97819,0.973416 -1.05031,2.704242 0.28707,4.048195 1.37125,1.377977 2.86449,1.449515 3.94475,0.374526 z m -0.43944,-0.730812 c -0.76555,0.761803 -1.80888,0.614998 -2.79076,-0.371701 -0.93956,-0.94417 -0.99598,-2.157707 -0.28147,-2.868723 0.35725,-0.355508 0.84993,-0.57492 1.57124,-0.59861 l 2.04841,2.05846 c 0.0405,0.772262 -0.13913,1.374279 -0.54742,1.780574 z"
             inkscape:connector-curvature="0" />
          <path
             id="path7701"
             style="font-style:normal;font-variant:normal;font-weight:normal;font-stretch:normal;font-family:'Source Code Pro for Powerline';-inkscape-font-specification:'Source Code Pro for Powerline';letter-spacing:0.15000001px;fill:#058282;fill-opacity:1"
             d="m 177.82733,62.905925 c 0.79956,-0.633332 1.20468,-1.474722 1.27741,-2.175287 l -2.05647,-2.596206 -1.95656,1.549802 0.51412,0.649051 1.23226,-0.976077 1.27411,1.608519 c -0.0563,0.412032 -0.34905,0.873521 -0.78175,1.216266 -1.21345,0.961175 -2.67503,0.526815 -3.90444,-1.025264 -1.21451,-1.533267 -1.21257,-3.096263 -0.0556,-4.012732 0.59261,-0.469411 1.15319,-0.515429 1.70754,-0.434037 l 0.0472,-0.848743 c -0.63863,-0.09117 -1.48029,-0.05213 -2.29866,0.596102 -1.59911,1.266665 -1.78358,3.37227 -0.20397,5.366457 1.5945,2.013 3.6527,2.311559 5.20478,1.082149 z"
             inkscape:connector-curvature="0" />
          <path
             id="path7703"
             style="font-style:normal;font-variant:normal;font-weight:normal;font-stretch:normal;font-family:'Source Code Pro for Powerline';-inkscape-font-specification:'Source Code Pro for Powerline';letter-spacing:0.15000001px;fill:#058282;fill-opacity:1"
             d="m 181.76193,59.736153 0.80425,-0.566955 -1.97052,-2.795259 c -0.12946,-1.391618 0.28455,-2.241391 1.00053,-2.746119 0.3727,-0.262736 0.58382,-0.338149 1.00025,-0.455533 l -0.30455,-0.827731 c -0.39794,0.0603 -0.72675,0.218687 -1.07984,0.467594 -0.88271,0.622268 -1.28932,1.628327 -1.25023,2.745963 l -0.0294,0.02074 -0.86378,-1.079513 -0.66694,0.470158 z"
             inkscape:connector-curvature="0" />
          <path
             id="path7705"
             style="font-style:normal;font-variant:normal;font-weight:normal;font-stretch:normal;font-family:'Source Code Pro for Powerline';-inkscape-font-specification:'Source Code Pro for Powerline';letter-spacing:0.15000001px;fill:#058282;fill-opacity:1"
             d="m 188.91741,55.074115 c 0.70225,-0.438661 1.17564,-1.243716 1.45822,-2.014475 l 0.0305,-0.01907 0.49083,0.627219 0.6819,-0.425947 -1.89451,-3.032921 c -0.76924,-1.231489 -1.92285,-1.628644 -3.27647,-0.783108 -0.86509,0.54038 -1.45807,1.448436 -1.75334,2.085632 l 0.6817,0.366508 c 0.27999,-0.571056 0.72027,-1.270543 1.36146,-1.67106 0.9567,-0.597597 1.64857,-0.237446 2.08852,0.42156 -2.42743,1.799262 -3.11842,2.980773 -2.42547,4.09013 0.5531,0.88545 1.63047,0.934058 2.55663,0.355534 z m -0.19568,-0.811584 c -0.56995,0.356015 -1.23523,0.446159 -1.58488,-0.113609 -0.40688,-0.651365 -0.0162,-1.475521 1.9927,-2.970882 l 0.81374,1.302732 c -0.26732,0.817826 -0.6618,1.432101 -1.22156,1.781759 z"
             inkscape:connector-curvature="0" />
          <path
             id="path7707"
             style="font-style:normal;font-variant:normal;font-weight:normal;font-stretch:normal;font-family:'Source Code Pro for Powerline';-inkscape-font-specification:'Source Code Pro for Powerline';letter-spacing:0.15000001px;fill:#058282;fill-opacity:1"
             d="m 194.73398,54.245138 0.8623,-0.474022 -0.94804,-1.724597 -0.5739,-0.944334 0.0315,-0.01734 c 0.68341,0.17206 1.41577,0.08442 1.88898,-0.175713 1.23036,-0.676349 1.76327,-2.297585 0.80944,-4.032697 -0.87289,-1.587892 -2.16973,-2.203274 -3.54731,-1.445995 -0.63095,0.346846 -1.11424,1.037025 -1.33888,1.74934 l -0.0315,0.01734 -0.43202,-0.611517 -0.71507,0.393092 z m 0.7148,-3.98067 c -0.34702,0.190765 -0.97582,0.31733 -1.69656,0.152096 l -1.39895,-2.544832 c 0.23676,-0.81483 0.62959,-1.345732 1.08177,-1.594305 1.02004,-0.560734 1.85689,-0.03482 2.47543,1.09037 0.69369,1.261901 0.45319,2.393745 -0.46169,2.896671 z"
             inkscape:connector-curvature="0" />
          <path
             id="path7709"
             style="font-style:normal;font-variant:normal;font-weight:normal;font-stretch:normal;font-family:'Source Code Pro for Powerline';-inkscape-font-specification:'Source Code Pro for Powerline';letter-spacing:0.15000001px;fill:#058282;fill-opacity:1"
             d="m 200.01781,48.609044 0.88745,-0.425068 -1.75729,-3.668862 c 0.31105,-0.934007 0.5828,-1.450029 1.21051,-1.750687 0.86581,-0.4147 1.44022,-0.104386 1.91712,0.891293 l 1.50847,3.149377 0.88746,-0.425068 -1.5655,-3.268425 c -0.66352,-1.385293 -1.58961,-1.846491 -2.83421,-1.250359 -0.82252,0.393965 -1.21605,1.127982 -1.47726,1.97159 l -0.0325,0.01555 -0.54202,-1.270518 -1.00565,-2.099585 -0.88745,0.425068 z"
             inkscape:connector-curvature="0" />
          <path
             id="path7711"
             style="font-style:normal;font-variant:normal;font-weight:normal;font-stretch:normal;font-family:'Source Code Pro for Powerline';-inkscape-font-specification:'Source Code Pro for Powerline';letter-spacing:0.15000001px;fill:#058282;fill-opacity:1"
             d="m 209.13422,44.638487 c 1.54254,-0.634664 2.09569,-1.718668 1.73498,-2.595363 -0.33788,-0.821208 -0.95788,-1.09813 -2.91546,-0.74686 -1.19453,0.218981 -1.74281,0.210996 -1.93458,-0.255095 -0.16894,-0.410604 0.002,-0.90923 0.9233,-1.288201 0.68804,-0.283088 1.40081,-0.316831 2.04174,-0.178278 l 0.2019,-0.770799 c -0.68335,-0.14705 -1.63697,-0.130997 -2.45818,0.206881 -1.47595,0.607268 -1.96772,1.588161 -1.61158,2.453758 0.33331,0.810111 1.23988,0.99508 2.75687,0.708306 1.58814,-0.303071 1.9288,-0.105857 2.09774,0.304746 0.1872,0.454994 -0.10799,1.030606 -1.01797,1.405012 -0.99877,0.410932 -1.83881,0.419185 -2.64291,0.23098 l -0.17514,0.772765 c 0.84195,0.185604 1.94504,0.18591 2.99929,-0.247852 z"
             inkscape:connector-curvature="0" />
          <path
             id="path7713"
             style="font-style:normal;font-variant:normal;font-weight:normal;font-stretch:normal;font-family:'Source Code Pro for Powerline';-inkscape-font-specification:'Source Code Pro for Powerline';letter-spacing:0.15000001px;fill:#058282;fill-opacity:1"
             d="m 222.3583,39.885055 0.96995,-0.274366 -0.76431,-2.701981 1.16197,-5.59138 -0.99304,0.280898 -0.4633,2.550398 c -0.1221,0.67055 -0.25901,1.332819 -0.38611,2.029729 l -0.0462,0.01306 c -0.48488,-0.523798 -0.91377,-1.026021 -1.36576,-1.521711 l -1.78006,-1.928292 -1.01613,0.287431 3.91868,4.154227 z"
             inkscape:connector-curvature="0" />
          <path
             id="path7715"
             style="font-style:normal;font-variant:normal;font-weight:normal;font-stretch:normal;font-family:'Source Code Pro for Powerline';-inkscape-font-specification:'Source Code Pro for Powerline';letter-spacing:0.15000001px;fill:#058282;fill-opacity:1"
             d="m 230.15311,37.914717 0.96091,-0.211912 -1.25596,-5.695154 -3.60927,0.795959 0.17314,0.785134 2.64837,-0.584047 z m -1.14457,-6.973131 c 0.43358,-0.09562 0.70881,-0.463524 0.60802,-0.920542 -0.0982,-0.4453 -0.50522,-0.675035 -0.93881,-0.579417 -0.43358,0.09562 -0.70622,0.475242 -0.60802,0.920542 0.10079,0.457019 0.50523,0.675035 0.93881,0.579417 z"
             inkscape:connector-curvature="0" />
          <path
             id="path7717"
             style="font-style:normal;font-variant:normal;font-weight:normal;font-stretch:normal;font-family:'Source Code Pro for Powerline';-inkscape-font-specification:'Source Code Pro for Powerline';letter-spacing:0.15000001px;fill:#058282;fill-opacity:1"
             d="m 237.55944,36.673853 c 0.92442,-0.146759 1.6103,-0.571555 2.11897,-1.041118 l -0.45715,-0.58354 c -0.46879,0.414632 -0.9801,0.71451 -1.66749,0.823639 -1.19701,0.190034 -2.2268,-0.326895 -2.55228,-1.611753 l 4.53915,-0.720625 c -7.5e-4,-0.157834 -0.0109,-0.374925 -0.0467,-0.600105 -0.25776,-1.623666 -1.40081,-2.547874 -3.06003,-2.28446 -1.54071,0.244598 -2.75857,1.60437 -2.46129,3.476919 0.30481,1.919955 1.85646,2.815746 3.58679,2.541043 z m -0.9795,-5.251373 c 0.98368,-0.156167 1.72771,0.321077 1.99883,1.493064 l -3.67399,0.583273 c -0.003,-1.165974 0.72703,-1.925815 1.67516,-2.076337 z"
             inkscape:connector-curvature="0" />
          <path
             id="path7719"
             style="font-style:normal;font-variant:normal;font-weight:normal;font-stretch:normal;font-family:'Source Code Pro for Powerline';-inkscape-font-specification:'Source Code Pro for Powerline';letter-spacing:0.15000001px;fill:#058282;fill-opacity:1"
             d="m 245.75814,35.670319 c 0.63277,-0.06402 1.00274,-0.222057 1.51705,-0.503252 l -0.3244,-0.702918 c -0.37587,0.218945 -0.72559,0.338753 -1.05988,0.372573 -0.69247,0.07005 -1.18239,-0.242219 -1.26815,-1.089892 l -0.67035,-6.626177 -3.04446,0.307999 0.0809,0.799917 2.06545,-0.208956 0.58218,5.754626 c 0.13891,1.372991 0.8919,2.020488 2.12163,1.89608 z"
             inkscape:connector-curvature="0" />
          <path
             id="path7721"
             style="font-style:normal;font-variant:normal;font-weight:normal;font-stretch:normal;font-family:'Source Code Pro for Powerline';-inkscape-font-specification:'Source Code Pro for Powerline';letter-spacing:0.15000001px;fill:#058282;fill-opacity:1"
             d="m 251.44718,35.210326 c 0.71865,-0.04415 1.38758,-0.506046 1.83651,-1.026556 l 0.0359,-0.0022 0.13094,0.761403 0.81446,-0.05004 -0.52396,-8.527919 -0.98214,0.06034 0.13761,2.239777 0.11414,1.075024 -0.0359,0.0022 c -0.53249,-0.448189 -1.0884,-0.690554 -1.78309,-0.647871 -1.3774,0.08463 -2.57489,1.33642 -2.45862,3.228851 0.11922,1.940341 1.19302,2.980448 2.71415,2.886989 z m 0.15284,-0.838952 c -1.07796,0.06623 -1.76428,-0.733185 -1.84964,-2.122566 -0.0817,-1.329492 0.67758,-2.27784 1.68369,-2.339655 0.50305,-0.03091 1.01787,0.129823 1.57505,0.588517 l 0.17809,2.898535 c -0.47971,0.606559 -1.01227,0.939846 -1.58719,0.975169 z"
             inkscape:connector-curvature="0" />
          <path
             id="path7723"
             style="font-style:normal;font-variant:normal;font-weight:normal;font-stretch:normal;font-family:'Source Code Pro for Powerline';-inkscape-font-specification:'Source Code Pro for Powerline';letter-spacing:0.15000001px;fill:#058282;fill-opacity:1"
             d="m 259.3184,34.818171 0.984,-7.4e-4 -0.004,-5.831999 -3.696,0.0028 6e-4,0.803999 2.712,-0.002 z m 0.37869,-7.056287 c 0.444,-3.34e-4 0.79177,-0.300596 0.79142,-0.768596 -3.5e-4,-0.455999 -0.34858,-0.767737 -0.79258,-0.767403 -0.444,3.34e-4 -0.79177,0.312596 -0.79142,0.768596 3.5e-4,0.468 0.34858,0.767738 0.79258,0.767403 z"
             inkscape:connector-curvature="0" />
          <path
             id="path7725"
             style="font-style:normal;font-variant:normal;font-weight:normal;font-stretch:normal;font-family:'Source Code Pro for Powerline';-inkscape-font-specification:'Source Code Pro for Powerline';letter-spacing:0.15000001px;fill:#058282;fill-opacity:1"
             d="m 263.98782,34.886538 0.9823,0.05783 0.23907,-4.060969 c 0.72442,-0.666579 1.21206,-0.986475 1.90686,-0.945572 0.95834,0.05642 1.31065,0.606071 1.24577,1.708163 l -0.20522,3.485964 0.9823,0.05783 0.21298,-3.617737 c 0.0903,-1.533345 -0.49668,-2.385311 -1.8743,-2.46641 -0.91042,-0.0536 -1.61017,0.398061 -2.2592,1.008976 l -0.0479,-0.0028 -0.0253,-0.999215 -0.81459,-0.04796 z"
             inkscape:connector-curvature="0" />
          <path
             id="path7727"
             style="font-style:normal;font-variant:normal;font-weight:normal;font-stretch:normal;font-family:'Source Code Pro for Powerline';-inkscape-font-specification:'Source Code Pro for Powerline';letter-spacing:0.15000001px;fill:#058282;fill-opacity:1"
             d="m 273.42078,38.343488 c 1.96638,0.231872 3.32873,-0.56205 3.45661,-1.646537 0.11523,-0.977229 -0.55484,-1.442904 -2.04452,-1.618565 l -1.299,-0.153176 c -0.76272,-0.08994 -1.17837,-0.356447 -1.12497,-0.80931 0.0323,-0.274101 0.22446,-0.46894 0.53156,-0.613975 0.30491,0.180952 0.654,0.294615 0.95193,0.329747 1.25133,0.147555 2.32901,-0.486604 2.47516,-1.726017 0.0548,-0.46478 -0.12103,-0.920508 -0.35089,-1.225525 l 1.50159,0.177066 0.0942,-0.798468 -2.39541,-0.282463 c -0.23902,-0.12485 -0.5075,-0.204841 -0.84119,-0.244189 -1.22749,-0.144745 -2.37179,0.541976 -2.52075,1.805223 -0.0815,0.691211 0.17984,1.241604 0.53798,1.585914 l -0.006,0.04767 c -0.47607,0.245941 -0.77553,0.63354 -0.81909,1.00298 -0.0576,0.488615 0.19327,0.820277 0.48345,1.023659 l -0.006,0.04767 c -0.66187,0.284448 -1.05036,0.70988 -1.10517,1.174659 -0.12085,1.0249 0.78752,1.724087 2.47979,1.923638 z m 0.54891,-5.167275 c -0.72697,-0.08572 -1.27152,-0.693676 -1.17315,-1.527896 0.0956,-0.810386 0.76799,-1.286918 1.49496,-1.201195 0.73888,0.08713 1.2701,0.705593 1.17455,1.515979 -0.0984,0.83422 -0.75748,1.30024 -1.49636,1.213112 z m -0.39308,4.46066 c -1.23942,-0.146149 -1.84991,-0.604798 -1.77824,-1.212587 0.0394,-0.333688 0.26938,-0.644891 0.85271,-0.878184 0.24184,0.101016 0.53696,0.159983 0.87065,0.199331 l 1.13215,0.133502 c 0.88189,0.103991 1.30457,0.310913 1.23993,0.859115 -0.0703,0.595871 -0.97053,1.057621 -2.3172,0.898823 z"
             inkscape:connector-curvature="0" />
          <path
             id="path7729"
             style="font-style:normal;font-variant:normal;font-weight:normal;font-stretch:normal;font-family:'Source Code Pro for Powerline';-inkscape-font-specification:'Source Code Pro for Powerline';letter-spacing:0.15000001px;fill:#058282;fill-opacity:1"
             d="m 285.92925,37.689693 0.9693,0.229083 0.71761,-3.036352 1.343,0.317404 c 1.68167,0.397446 3.01723,-0.0884 3.39811,-1.700001 0.39745,-1.681672 -0.61178,-2.524391 -2.30513,-2.924597 l -2.3123,-0.546488 z m 1.87459,-3.601392 0.72037,-3.048031 1.22622,0.289804 c 1.31965,0.311885 1.88807,0.828474 1.62587,1.93791 -0.25669,1.08608 -1.00324,1.427526 -2.34624,1.110121 z"
             inkscape:connector-curvature="0" />
          <path
             id="path7731"
             style="font-style:normal;font-variant:normal;font-weight:normal;font-stretch:normal;font-family:'Source Code Pro for Powerline';-inkscape-font-specification:'Source Code Pro for Powerline';letter-spacing:0.15000001px;fill:#058282;fill-opacity:1"
             d="m 294.67618,40.080627 c 0.79378,0.235598 1.71047,0.05705 2.47509,-0.241734 l 0.0345,0.01024 -0.14482,0.783164 0.77076,0.228768 1.01751,-3.428185 c 0.41315,-1.391981 -0.0534,-2.519321 -1.58339,-2.973443 -0.97784,-0.290229 -2.05091,-0.133063 -2.72387,0.06775 l 0.17692,0.753486 c 0.61328,-0.168461 1.42896,-0.301884 2.15371,-0.08677 1.08138,0.320959 1.2698,1.077858 1.06745,1.84395 -2.95579,-0.626949 -4.29865,-0.362099 -4.67083,0.891835 -0.29706,1.000846 0.3801,1.840219 1.42696,2.150934 z m 0.47844,-0.684144 c -0.64422,-0.19121 -1.15239,-0.629939 -0.96459,-1.262657 0.21852,-0.736255 1.09477,-0.989393 3.54564,-0.474753 l -0.43705,1.472509 c -0.78978,0.341387 -1.51128,0.452696 -2.144,0.264901 z"
             inkscape:connector-curvature="0" />
          <path
             id="path7733"
             style="font-style:normal;font-variant:normal;font-weight:normal;font-stretch:normal;font-family:'Source Code Pro for Powerline';-inkscape-font-specification:'Source Code Pro for Powerline';letter-spacing:0.15000001px;fill:#058282;fill-opacity:1"
             d="m 300.57835,41.78934 0.92615,0.332417 1.15535,-3.218939 c 1.06453,-0.905622 1.99789,-1.055097 2.82239,-0.759165 0.4292,0.154047 0.61223,0.283489 0.9476,0.556855 l 0.50242,-0.724888 c -0.27803,-0.291034 -0.5966,-0.469122 -1.0032,-0.615061 -1.01651,-0.364848 -2.07353,-0.11951 -2.96575,0.554715 l -0.0339,-0.01216 0.38714,-1.327247 -0.76803,-0.275663 z"
             inkscape:connector-curvature="0" />
          <path
             id="path7735"
             style="font-style:normal;font-variant:normal;font-weight:normal;font-stretch:normal;font-family:'Source Code Pro for Powerline';-inkscape-font-specification:'Source Code Pro for Powerline';letter-spacing:0.15000001px;fill:#058282;fill-opacity:1"
             d="m 308.50532,44.967104 c 0.76248,0.322825 1.69338,0.247838 2.4866,0.03637 l 0.0332,0.01404 -0.23144,0.762074 0.74037,0.313469 1.39424,-3.293007 c 0.56611,-1.337093 0.2285,-2.509504 -1.2412,-3.131762 -0.93928,-0.397684 -2.0232,-0.361418 -2.71438,-0.23706 l 0.0916,0.768537 c 0.62827,-0.09887 1.45375,-0.140307 2.14992,0.154447 1.03873,0.439791 1.14139,1.213006 0.8547,1.951687 -2.86721,-0.95333 -4.23126,-0.840203 -4.74123,0.364286 -0.40705,0.961381 0.17207,1.871168 1.17765,2.296924 z m 0.5519,-0.626394 c -0.61882,-0.262003 -1.07478,-0.754772 -0.81745,-1.362542 0.29943,-0.707222 1.19848,-0.860855 3.57649,-0.07555 l -0.59887,1.414446 c -0.82299,0.250991 -1.5524,0.280976 -2.16017,0.02365 z"
             inkscape:connector-curvature="0" />
          <path
             id="path7737"
             style="font-style:normal;font-variant:normal;font-weight:normal;font-stretch:normal;font-family:'Source Code Pro for Powerline';-inkscape-font-specification:'Source Code Pro for Powerline';letter-spacing:0.15000001px;fill:#058282;fill-opacity:1"
             d="m 316.92769,48.833814 c 0.57089,0.280322 0.96847,0.341857 1.55368,0.375207 l 0.0964,-0.768133 c -0.4348,-0.01297 -0.79497,-0.09624 -1.09657,-0.244333 -0.62475,-0.306767 -0.87539,-0.830898 -0.49987,-1.595676 l 2.93544,-5.978192 -2.74673,-1.348716 -0.35437,0.721691 1.86347,0.915012 -2.54934,5.191871 c -0.60824,1.238725 -0.31161,2.186494 0.79786,2.731269 z"
             inkscape:connector-curvature="0" />
          <path
             id="path7739"
             style="font-style:normal;font-variant:normal;font-weight:normal;font-stretch:normal;font-family:'Source Code Pro for Powerline';-inkscape-font-specification:'Source Code Pro for Powerline';letter-spacing:0.15000001px;fill:#058282;fill-opacity:1"
             d="m 323.38605,52.314612 c 0.55425,0.311925 0.94775,0.39568 1.53017,0.461827 l 0.13939,-0.761509 c -0.43338,-0.03735 -0.78831,-0.140711 -1.08112,-0.305501 -0.60654,-0.341352 -0.82737,-0.878725 -0.40951,-1.621218 l 3.26638,-5.803994 -2.6667,-1.500771 -0.39432,0.700663 1.80917,1.018169 -2.83675,5.040586 c -0.67681,1.20263 -0.43385,2.165555 0.64329,2.771748 z"
             inkscape:connector-curvature="0" />
          <path
             id="path7741"
             style="font-style:normal;font-variant:normal;font-weight:normal;font-stretch:normal;font-family:'Source Code Pro for Powerline';-inkscape-font-specification:'Source Code Pro for Powerline';letter-spacing:0.15000001px;fill:#058282;fill-opacity:1"
             d="m 328.85946,55.656067 c 0.78843,0.504456 1.58328,0.642623 2.27543,0.629599 l 0.046,-0.739856 c -0.62584,-0.0015 -1.20722,-0.117093 -1.79349,-0.492201 -1.02091,-0.653206 -1.44717,-1.723713 -0.83684,-2.900274 l 3.87139,2.477006 c 0.10429,-0.11847 0.24092,-0.287481 0.3638,-0.479534 0.88603,-1.384805 0.6457,-2.834964 -0.76943,-3.740397 -1.31405,-0.840759 -3.12767,-0.633536 -4.14951,0.963539 -1.04772,1.637507 -0.48311,3.337881 0.99266,4.282118 z m 2.75669,-4.575698 c 0.83897,0.536792 1.07801,1.387793 0.50203,2.443872 l -3.1335,-2.004888 c 0.77249,-0.873363 1.82282,-0.956374 2.63147,-0.438984 z"
             inkscape:connector-curvature="0" />
          <path
             id="path7743"
             style="font-style:normal;font-variant:normal;font-weight:normal;font-stretch:normal;font-family:'Source Code Pro for Powerline';-inkscape-font-specification:'Source Code Pro for Powerline';letter-spacing:0.15000001px;fill:#058282;fill-opacity:1"
             d="m 335.66065,60.343173 c 0.51526,0.372833 0.89671,0.500722 1.46785,0.632563 l 0.22495,-0.74076 c -0.42634,-0.08631 -0.76724,-0.229298 -1.03945,-0.426267 -0.56387,-0.408006 -0.72226,-0.966976 -0.22281,-1.657228 l 3.9042,-5.395633 -2.47908,-1.79382 -0.47131,0.651365 1.68188,1.216984 -3.39067,4.685937 c -0.80898,1.118014 -0.67691,2.102297 0.32444,2.826859 z"
             inkscape:connector-curvature="0" />
          <path
             id="path7745"
             style="font-style:normal;font-variant:normal;font-weight:normal;font-stretch:normal;font-family:'Source Code Pro for Powerline';-inkscape-font-specification:'Source Code Pro for Powerline';letter-spacing:0.15000001px;fill:#058282;fill-opacity:1"
             d="m 346.43303,69.277184 c 0.76868,0.70645 1.61835,0.916899 2.56499,0.809023 l -10e-4,-0.832249 c -0.75273,0.07422 -1.37028,-0.06959 -1.90041,-0.556795 -1.11325,-1.023135 -0.99326,-2.607862 0.34656,-4.065698 1.32358,-1.440165 2.87633,-1.675523 3.98959,-0.652389 0.48594,0.446606 0.67098,1.00782 0.67906,1.601977 l 0.84563,-0.08663 c 0.005,-0.67965 -0.24277,-1.526961 -0.93193,-2.16033 -1.51084,-1.38854 -3.64509,-1.247551 -5.35843,0.616712 -1.73771,1.890769 -1.66526,4.010919 -0.23393,5.326378 z"
             inkscape:connector-curvature="0" />
          <path
             id="path7747"
             style="font-style:normal;font-variant:normal;font-weight:normal;font-stretch:normal;font-family:'Source Code Pro for Powerline';-inkscape-font-specification:'Source Code Pro for Powerline';letter-spacing:0.15000001px;fill:#058282;fill-opacity:1"
             d="m 351.23294,73.985876 c 1.06665,1.105243 2.80299,1.297346 4.19318,-0.04429 1.40746,-1.358307 1.27717,-3.10038 0.21053,-4.205623 -1.06665,-1.105243 -2.80299,-1.297347 -4.21045,0.06096 -1.39019,1.341641 -1.2599,3.083713 -0.19326,4.188957 z m 0.58716,-0.566656 c -0.77498,-0.803028 -0.64403,-1.963368 0.31442,-2.88835 0.96709,-0.933315 2.13998,-1.031284 2.91497,-0.228256 0.77498,0.803029 0.6354,1.971702 -0.33169,2.905017 -0.95845,0.924982 -2.12271,1.014617 -2.8977,0.211589 z"
             inkscape:connector-curvature="0" />
          <path
             id="path7749"
             style="font-style:normal;font-variant:normal;font-weight:normal;font-stretch:normal;font-family:'Source Code Pro for Powerline';-inkscape-font-specification:'Source Code Pro for Powerline';letter-spacing:0.15000001px;fill:#058282;fill-opacity:1"
             d="m 354.38821,77.114304 0.63885,0.748413 3.21271,-2.742393 c 0.64333,-0.170496 1.0429,-0.164475 1.30779,0.145843 0.28047,0.328572 0.12486,0.682286 -0.38625,1.118575 l -3.12143,2.664485 0.59211,0.693651 3.2127,-2.742393 c 0.65891,-0.152242 1.02732,-0.182729 1.29221,0.127589 0.28048,0.328572 0.14045,0.70054 -0.37066,1.136829 l -3.12144,2.664485 0.63886,0.748413 3.17619,-2.711229 c 0.88532,-0.755717 1.05741,-1.533714 0.52763,-2.154349 -0.43629,-0.511112 -0.96208,-0.535613 -1.65482,-0.386043 0.40203,-0.564068 0.42386,-1.056022 0.0499,-1.494118 -0.43629,-0.511112 -0.95295,-0.543404 -1.55844,-0.420989 l -0.0156,-0.01825 0.52959,-0.562506 -0.5142,-0.602382 z"
             inkscape:connector-curvature="0" />
          <path
             id="path7751"
             style="font-style:normal;font-variant:normal;font-weight:normal;font-stretch:normal;font-family:'Source Code Pro for Powerline';-inkscape-font-specification:'Source Code Pro for Powerline';letter-spacing:0.15000001px;fill:#058282;fill-opacity:1"
             d="m 357.40759,84.545751 0.59111,0.786667 1.57334,-1.182219 0.85377,-0.70157 0.0216,0.02878 c -0.0738,0.700867 0.11648,1.413496 0.44087,1.845203 0.84341,1.12244 2.52368,1.420926 4.10661,0.231498 1.44861,-1.088506 1.87458,-2.45929 0.93025,-3.71604 -0.43252,-0.57561 -1.18407,-0.956533 -1.92098,-1.078268 l -0.0216,-0.02878 0.54433,-0.514091 -0.49018,-0.652358 z m 4.04174,0.145156 c -0.23789,-0.316585 -0.45203,-0.921193 -0.3903,-1.658049 l 2.32163,-1.744493 c 0.84011,0.119243 1.42119,0.433119 1.73116,0.84564 0.69924,0.93057 0.29686,1.833333 -0.72965,2.604658 -1.15122,0.865039 -2.30569,0.786879 -2.93284,-0.04776 z"
             inkscape:connector-curvature="0" />
          <path
             id="path7753"
             style="font-style:normal;font-variant:normal;font-weight:normal;font-stretch:normal;font-family:'Source Code Pro for Powerline';-inkscape-font-specification:'Source Code Pro for Powerline';letter-spacing:0.15000001px;fill:#058282;fill-opacity:1"
             d="m 364.61483,90.598744 c 0.49405,0.752269 1.27075,1.060496 2.16525,1.176496 l 0.0263,0.04012 -0.80646,0.630142 0.44136,0.672027 4.8747,-3.201486 -0.54017,-0.82248 -3.38019,2.21996 c -0.98763,-0.126626 -1.52853,-0.360006 -1.89742,-0.9217 -0.53358,-0.81245 -0.29646,-1.413234 0.62632,-2.019277 l 2.9188,-1.916939 -0.54675,-0.832511 -3.02914,1.989401 c -1.28387,0.843189 -1.61679,1.822737 -0.85265,2.986246 z"
             inkscape:connector-curvature="0" />
          <path
             id="path7755"
             style="font-style:normal;font-variant:normal;font-weight:normal;font-stretch:normal;font-family:'Source Code Pro for Powerline';-inkscape-font-specification:'Source Code Pro for Powerline';letter-spacing:0.15000001px;fill:#058282;fill-opacity:1"
             d="m 369.432,98.336053 c 0.375,0.628652 0.7979,1.033106 1.23328,1.3882 l 0.5077,-0.554351 c -0.34914,-0.280785 -0.6632,-0.596465 -0.94598,-1.07053 -0.57786,-0.968742 -0.28207,-1.550392 0.61453,-2.085221 l 2.38063,-1.420062 1.46924,2.463077 0.69049,-0.411879 -1.46925,-2.463078 1.6077,-0.959003 -0.41802,-0.700792 -1.67532,0.84564 -0.91218,-1.41207 -0.63895,0.381142 0.8422,1.41189 -2.37033,1.413915 c -1.23669,0.737695 -1.78867,1.709704 -0.91574,3.173122 z"
             inkscape:connector-curvature="0" />
          <path
             id="path7757"
             style="font-style:normal;font-variant:normal;font-weight:normal;font-stretch:normal;font-family:'Source Code Pro for Powerline';-inkscape-font-specification:'Source Code Pro for Powerline';letter-spacing:0.15000001px;fill:#058282;fill-opacity:1"
             d="m 372.13596,103.1949 c 0.38213,0.73454 1.14751,1.26971 1.89369,1.61197 l 0.0166,0.0319 -0.66384,0.44004 0.37106,0.71325 3.17238,-1.65038 c 1.28812,-0.67013 1.77467,-1.78896 1.03809,-3.20482 -0.47075,-0.90488 -1.32941,-1.567362 -1.94144,-1.911773 l -0.41893,0.650798 c 0.5473,0.323985 1.21003,0.817865 1.55894,1.488535 0.52059,1.00068 0.1072,1.66212 -0.58433,2.04894 -1.603,-2.56128 -2.72658,-3.34296 -3.88695,-2.73929 -0.92616,0.48182 -1.05926,1.55204 -0.55528,2.52079 z m 0.82445,-0.13132 c -0.31014,-0.59615 -0.34774,-1.26646 0.23776,-1.57106 0.68132,-0.35444 1.47223,0.0998 2.80515,2.21994 l -1.36263,0.70889 c -0.7943,-0.33075 -1.37568,-0.77226 -1.68028,-1.35777 z"
             inkscape:connector-curvature="0" />
          <path
             id="path7759"
             style="font-style:normal;font-variant:normal;font-weight:normal;font-stretch:normal;font-family:'Source Code Pro for Powerline';-inkscape-font-specification:'Source Code Pro for Powerline';letter-spacing:0.15000001px;fill:#058282;fill-opacity:1"
             d="m 376.08389,111.40604 c 0.29851,0.66837 0.67094,1.11973 1.06157,1.52353 l 0.56933,-0.49083 c -0.31372,-0.31988 -0.5885,-0.67028 -0.8136,-1.1743 -0.45999,-1.02995 -0.0979,-1.5728 0.85536,-1.99854 l 2.53104,-1.1304 1.16956,2.6187 0.73411,-0.32787 -1.16955,-2.6187 1.70927,-0.76339 -0.33276,-0.74507 -1.7631,0.64287 -0.73988,-1.5095 -0.67933,0.3034 0.67042,1.50109 -2.52009,1.12552 c -1.31482,0.58722 -1.97723,1.48761 -1.28235,3.04349 z"
             inkscape:connector-curvature="0" />
          <path
             id="path7761"
             style="font-style:normal;font-variant:normal;font-weight:normal;font-stretch:normal;font-family:'Source Code Pro for Powerline';-inkscape-font-specification:'Source Code Pro for Powerline';letter-spacing:0.15000001px;fill:#058282;fill-opacity:1"
             d="m 378.61963,117.28805 0.34802,0.9204 5.45507,-2.06263 -1.30718,-3.45712 -0.75203,0.28435 0.95916,2.53672 z m 6.73578,-2.13634 c 0.15703,0.4153 0.56072,0.63471 0.99847,0.46919 0.42653,-0.16128 0.59529,-0.59713 0.43825,-1.01244 -0.15703,-0.4153 -0.57194,-0.63046 -0.99847,-0.46919 -0.43775,0.16552 -0.59528,0.59713 -0.43825,1.01244 z"
             inkscape:connector-curvature="0" />
          <path
             id="path7763"
             style="font-style:normal;font-variant:normal;font-weight:normal;font-stretch:normal;font-family:'Source Code Pro for Powerline';-inkscape-font-specification:'Source Code Pro for Powerline';letter-spacing:0.15000001px;fill:#058282;fill-opacity:1"
             d="m 380.81235,124.09336 c 0.45981,1.46556 1.92697,2.41385 3.77037,1.83549 1.8663,-0.58554 2.52879,-2.20199 2.06898,-3.66755 -0.45981,-1.46556 -1.92697,-2.41384 -3.79327,-1.8283 -1.8434,0.57835 -2.50589,2.1948 -2.04608,3.66036 z m 0.77858,-0.24428 c -0.33408,-1.06482 0.30193,-2.04412 1.57285,-2.44286 1.28236,-0.40233 2.37526,0.0345 2.70934,1.09936 0.33408,1.06482 -0.31338,2.04771 -1.59574,2.45005 -1.27092,0.39874 -2.35237,-0.0417 -2.68645,-1.10655 z"
             inkscape:connector-curvature="0" />
          <path
             id="path7765"
             style="font-style:normal;font-variant:normal;font-weight:normal;font-stretch:normal;font-family:'Source Code Pro for Powerline';-inkscape-font-specification:'Source Code Pro for Powerline';letter-spacing:0.15000001px;fill:#058282;fill-opacity:1"
             d="m 382.34002,128.70908 0.24105,0.95401 3.94405,-0.99657 c 0.85399,0.48972 1.30603,0.8582 1.47654,1.533 0.23518,0.93074 -0.18266,1.43239 -1.25302,1.70285 l -3.3856,0.85546 0.24106,0.95401 3.51357,-0.8878 c 1.4892,-0.37628 2.12453,-1.1928 1.78646,-2.53075 -0.22342,-0.88421 -0.86505,-1.41521 -1.64324,-1.84981 l -0.0118,-0.0465 0.94507,-0.32544 -0.1999,-0.79113 z"
             inkscape:connector-curvature="0" />
          <path
             id="path7767"
             style="font-style:normal;font-variant:normal;font-weight:normal;font-stretch:normal;font-family:'Source Code Pro for Powerline';-inkscape-font-specification:'Source Code Pro for Powerline';letter-spacing:0.15000001px;fill:#058282;fill-opacity:1"
             d="m 384.4295,138.43075 c 0.31797,1.63741 1.27158,2.39349 2.2022,2.21277 0.87171,-0.16927 1.26548,-0.72248 1.3072,-2.7109 0.0209,-1.21425 0.13687,-1.75018 0.63163,-1.84626 0.43586,-0.0846 0.89094,0.18149 1.0808,1.15923 0.14183,0.73035 0.0343,1.43578 -0.22791,2.03679 l 0.71584,0.34996 c 0.27894,-0.64092 0.45128,-1.57898 0.282,-2.45069 -0.30424,-1.56674 -1.16888,-2.2423 -2.08771,-2.06388 -0.85994,0.16699 -1.22008,1.01928 -1.23813,2.56302 -0.0161,1.61672 -0.27663,1.9118 -0.71249,1.99643 -0.48297,0.0938 -0.98906,-0.30912 -1.17664,-1.27508 -0.20588,-1.06019 -0.0483,-1.88536 0.29481,-2.63654 l -0.72304,-0.32411 c -0.34802,0.7888 -0.56588,1.87016 -0.34856,2.98926 z"
             inkscape:connector-curvature="0" />
          <path
             id="path7769"
             style="font-style:normal;font-variant:normal;font-weight:normal;font-stretch:normal;font-family:'Source Code Pro for Powerline';-inkscape-font-specification:'Source Code Pro for Powerline';letter-spacing:0.15000001px;fill:#058282;fill-opacity:1"
             d="m 386.40714,152.84347 c 0.12617,1.53081 1.3488,2.7786 3.27427,2.6199 1.94939,-0.16067 2.95122,-1.5918 2.82505,-3.12261 -0.12617,-1.53081 -1.3488,-2.7786 -3.29819,-2.61793 -1.92547,0.1587 -2.9273,1.58983 -2.80113,3.12064 z m 0.81324,-0.067 c -0.0917,-1.11223 0.74418,-1.92764 2.07168,-2.03705 1.33945,-0.1104 2.30949,0.55617 2.40116,1.6684 0.0917,1.11223 -0.75614,1.92863 -2.0956,2.03903 -1.3275,0.10941 -2.28557,-0.55815 -2.37724,-1.67038 z"
             inkscape:connector-curvature="0" />
          <path
             id="path7771"
             style="font-style:normal;font-variant:normal;font-weight:normal;font-stretch:normal;font-family:'Source Code Pro for Powerline';-inkscape-font-specification:'Source Code Pro for Powerline';letter-spacing:0.15000001px;fill:#058282;fill-opacity:1"
             d="m 386.93546,159.46921 0.0272,0.97162 5.02603,-0.14077 0.0685,2.44704 0.80368,-0.0225 -0.0685,-2.44704 0.52779,-0.0148 c 0.94763,-0.0265 1.5355,0.38917 1.56473,1.43276 0.0141,0.5038 -0.0354,0.87733 -0.23793,1.36319 l 0.75009,0.20708 c 0.21246,-0.55816 0.30496,-1.11297 0.28883,-1.68874 -0.045,-1.60737 -1.00148,-2.32488 -2.42892,-2.2849 l -0.49181,0.0138 -0.10667,-1.66567 -0.74371,0.0208 0.0467,1.66735 z"
             inkscape:connector-curvature="0" />
          <path
             id="path7773"
             style="font-style:normal;font-variant:normal;font-weight:normal;font-stretch:normal;font-family:'Source Code Pro for Powerline';-inkscape-font-specification:'Source Code Pro for Powerline';letter-spacing:0.15000001px;fill:#058282;fill-opacity:1"
             d="m 386.39184,175.27442 c -0.0818,1.01671 0.25743,1.88675 0.72032,2.4176 l 3.30132,0.26578 0.2003,-2.48795 -0.82533,-0.0665 -0.12615,1.56693 -2.04538,-0.16466 c -0.263,-0.32214 -0.40101,-0.85093 -0.35672,-1.40114 0.12422,-1.54301 1.4385,-2.31604 3.41211,-2.15715 1.94969,0.15696 3.09175,1.22404 2.9733,2.69528 -0.0607,0.75356 -0.40921,1.19502 -0.84671,1.54504 l 0.58869,0.61322 c 0.50212,-0.40502 1.04742,-1.04733 1.1312,-2.08796 0.1637,-2.03342 -1.25083,-3.604 -3.78663,-3.80814 -2.55971,-0.20607 -4.18143,1.09599 -4.34032,3.0696 z"
             inkscape:connector-curvature="0" />
          <path
             id="path7775"
             style="font-style:normal;font-variant:normal;font-weight:normal;font-stretch:normal;font-family:'Source Code Pro for Powerline';-inkscape-font-specification:'Source Code Pro for Powerline';letter-spacing:0.15000001px;fill:#058282;fill-opacity:1"
             d="m 386.03104,180.31421 -0.13226,0.97507 3.38896,0.45971 c 1.10745,0.85259 1.44801,1.73437 1.33026,2.60242 -0.0613,0.45186 -0.14978,0.65784 -0.34732,1.04278 l 0.81362,0.34045 c 0.22676,-0.33253 0.33461,-0.6812 0.39267,-1.10928 0.14517,-1.0702 -0.3149,-2.05296 -1.16014,-2.78522 l 0.005,-0.0357 1.37877,0.10225 0.10969,-0.80859 z"
             inkscape:connector-curvature="0" />
          <path
             id="path7777"
             style="font-style:normal;font-variant:normal;font-weight:normal;font-stretch:normal;font-family:'Source Code Pro for Powerline';-inkscape-font-specification:'Source Code Pro for Powerline';letter-spacing:0.15000001px;fill:#058282;fill-opacity:1"
             d="m 384.38688,189.71971 c -0.17658,0.9192 -0.0105,1.7087 0.2579,2.3468 l 0.70428,-0.23129 c -0.23036,-0.58191 -0.33834,-1.16475 -0.20704,-1.84825 0.22865,-1.19023 1.06516,-1.98265 2.3841,-1.85148 l -0.86705,4.51348 c 0.14867,0.053 0.35626,0.11731 0.58017,0.16033 1.61448,0.31014 2.8725,-0.45018 3.18944,-2.10001 0.2943,-1.53199 -0.56988,-3.13989 -2.43184,-3.49758 -1.90909,-0.36674 -3.27944,0.78746 -3.60996,2.508 z m 5.27128,0.866 c -0.1879,0.97811 -0.88985,1.51533 -2.08415,1.37144 l 0.70179,-3.6532 c 1.09736,0.39409 1.56347,1.33899 1.38236,2.28176 z"
             inkscape:connector-curvature="0" />
          <path
             id="path7779"
             style="font-style:normal;font-variant:normal;font-weight:normal;font-stretch:normal;font-family:'Source Code Pro for Powerline';-inkscape-font-specification:'Source Code Pro for Powerline';letter-spacing:0.15000001px;fill:#058282;fill-opacity:1"
             d="m 383.02892,195.90111 c -0.20117,0.80319 0.0167,1.71133 0.34818,2.46237 l -0.009,0.0349 -0.78868,-0.11094 -0.19534,0.77991 3.46886,0.86881 c 1.40849,0.35277 2.51468,-0.1619 2.90243,-1.71008 0.24782,-0.98944 0.0446,-2.05474 -0.18509,-2.71842 l -0.74516,0.20923 c 0.19474,0.60545 0.36319,1.41463 0.17952,2.14797 -0.27405,1.09421 -1.02213,1.31508 -1.79623,1.14594 0.49897,-2.98007 0.17649,-4.31027 -1.09232,-4.62806 -1.01272,-0.25364 -1.82213,0.45906 -2.08743,1.51835 z m 0.70413,0.44851 c 0.16326,-0.65187 0.57968,-1.17848 1.2199,-1.01813 0.74499,0.18659 1.03566,1.05111 0.62714,3.52189 l -1.48998,-0.37318 c -0.37511,-0.77433 -0.51741,-1.49036 -0.35706,-2.13058 z"
             inkscape:connector-curvature="0" />
          <path
             id="path7781"
             style="font-style:normal;font-variant:normal;font-weight:normal;font-stretch:normal;font-family:'Source Code Pro for Powerline';-inkscape-font-specification:'Source Code Pro for Powerline';letter-spacing:0.15000001px;fill:#058282;fill-opacity:1"
             d="m 380.55432,204.6702 c -0.21762,0.69891 -0.23634,1.28379 -0.20999,1.84499 l 0.75166,0.008 c -0.0241,-0.44739 0.001,-0.89197 0.16533,-1.41901 0.33534,-1.077 0.96584,-1.24516 1.96264,-0.9348 l 2.64667,0.82409 -0.85262,2.73833 0.76765,0.23902 0.85262,-2.73833 1.78736,0.55652 0.24259,-0.77911 -1.74812,-0.68255 0.44215,-1.62188 -0.71036,-0.22119 -0.48874,1.56967 -2.63521,-0.82051 c -1.3749,-0.42809 -2.46706,-0.19001 -2.97363,1.43694 z"
             inkscape:connector-curvature="0" />
          <path
             id="path7783"
             style="font-style:normal;font-variant:normal;font-weight:normal;font-stretch:normal;font-family:'Source Code Pro for Powerline';-inkscape-font-specification:'Source Code Pro for Powerline';letter-spacing:0.15000001px;fill:#058282;fill-opacity:1"
             d="m 376.76853,215.34024 -2.02523,4.56273 0.77874,0.34565 1.61628,-3.64141 2.61041,1.15866 -1.32418,2.98333 0.77873,0.34565 1.32419,-2.98333 2.25943,1.00288 -1.5676,3.53173 0.76776,0.34078 1.97655,-4.45305 z"
             inkscape:connector-curvature="0" />
          <path
             id="path7785"
             style="font-style:normal;font-variant:normal;font-weight:normal;font-stretch:normal;font-family:'Source Code Pro for Powerline';-inkscape-font-specification:'Source Code Pro for Powerline';letter-spacing:0.15000001px;fill:#058282;fill-opacity:1"
             d="m 373.00532,223.38337 -0.44659,0.86333 4.46588,2.31013 -1.12474,2.17432 0.71411,0.3694 1.12474,-2.17432 0.46897,0.24259 c 0.84202,0.43557 1.15514,1.08391 0.67547,2.0112 -0.23156,0.44765 -0.45577,0.75049 -0.86816,1.07759 l 0.55607,0.54434 c 0.45613,-0.38553 0.80567,-0.8262 1.07031,-1.3378 0.7388,-1.42823 0.24928,-2.5191 -1.01907,-3.1752 l -0.437,-0.22605 0.71308,-1.50909 -0.66082,-0.34183 -0.76637,1.48152 z"
             inkscape:connector-curvature="0" />
          <path
             id="path7787"
             style="font-style:normal;font-variant:normal;font-weight:normal;font-stretch:normal;font-family:'Source Code Pro for Powerline';-inkscape-font-specification:'Source Code Pro for Powerline';letter-spacing:0.15000001px;fill:#058282;fill-opacity:1"
             d="m 369.47198,229.82193 -0.49825,0.83458 4.31718,2.57736 -1.25485,2.10192 0.69034,0.41213 1.25484,-2.10192 0.45336,0.27066 c 0.81398,0.48594 1.0871,1.15213 0.55195,2.04853 -0.25835,0.43275 -0.50056,0.7214 -0.93207,1.02282 l 0.52194,0.57715 c 0.47873,-0.35709 0.85441,-0.77569 1.14967,-1.27026 0.82426,-1.38068 0.40196,-2.49929 -0.82416,-3.23128 l -0.42244,-0.2522 0.8035,-1.46295 -0.63882,-0.38137 -0.85502,1.43219 z"
             inkscape:connector-curvature="0" />
          <path
             id="path7789"
             style="font-style:normal;font-variant:normal;font-weight:normal;font-stretch:normal;font-family:'Source Code Pro for Powerline';-inkscape-font-specification:'Source Code Pro for Powerline';letter-spacing:0.15000001px;fill:#058282;fill-opacity:1"
             d="m 365.04922,236.76467 -0.55578,0.81201 4.81266,3.29402 2.08757,-3.05 -0.66348,-0.45411 -1.53178,2.23798 z m 5.60584,4.30223 c -0.25078,0.3664 -0.19977,0.82302 0.18643,1.08735 0.3763,0.25756 0.83032,0.14661 1.0811,-0.21979 0.25078,-0.36639 0.18987,-0.82979 -0.18643,-1.08735 -0.3862,-0.26433 -0.83032,-0.1466 -1.0811,0.21979 z"
             inkscape:connector-curvature="0" />
          <path
             id="path7791"
             style="font-style:normal;font-variant:normal;font-weight:normal;font-stretch:normal;font-family:'Source Code Pro for Powerline';-inkscape-font-specification:'Source Code Pro for Powerline';letter-spacing:0.15000001px;fill:#058282;fill-opacity:1"
             d="m 360.36783,242.8796 c -0.53198,0.68081 -0.76226,1.52122 -0.70737,2.38647 l 0.77452,0.0417 c -0.0259,-0.62944 0.0882,-1.30171 0.5315,-1.86905 0.82752,-1.05903 2.09084,-1.21405 3.14041,-0.39392 1.05903,0.82752 1.20874,2.11714 0.38121,3.17617 -0.37682,0.48223 -0.8857,0.72421 -1.51219,0.84383 l 0.19821,0.77928 c 0.66431,-0.0901 1.39543,-0.40206 1.97913,-1.14905 1.08612,-1.38998 1.12294,-3.24962 -0.41833,-4.45396 -1.52235,-1.18956 -3.24402,-0.79876 -4.36709,0.63849 z"
             inkscape:connector-curvature="0" />
          <path
             id="path7793"
             style="font-style:normal;font-variant:normal;font-weight:normal;font-stretch:normal;font-family:'Source Code Pro for Powerline';-inkscape-font-specification:'Source Code Pro for Powerline';letter-spacing:0.15000001px;fill:#058282;fill-opacity:1"
             d="m 356.05207,248.36973 -0.63748,0.74958 4.44265,3.77824 2.39443,-2.81551 -0.61246,-0.52086 -1.75696,2.06592 z m 5.12628,4.86372 c -0.28764,0.33823 -0.28456,0.79768 0.0719,1.10087 0.34737,0.29542 0.81049,0.23245 1.09813,-0.10578 0.28765,-0.33822 0.27542,-0.80545 -0.0719,-1.10086 -0.35651,-0.3032 -0.81049,-0.23245 -1.09814,0.10577 z"
             inkscape:connector-curvature="0" />
          <path
             id="path7795"
             style="font-style:normal;font-variant:normal;font-weight:normal;font-stretch:normal;font-family:'Source Code Pro for Powerline';-inkscape-font-specification:'Source Code Pro for Powerline';letter-spacing:0.15000001px;fill:#058282;fill-opacity:1"
             d="m 350.8938,253.82684 c -0.64968,0.6738 -0.9415,1.42594 -1.06487,2.10713 l 0.71635,0.19062 c 0.12461,-0.61331 0.35227,-1.1606 0.83537,-1.66164 0.84125,-0.87248 1.97469,-1.07984 3.00821,-0.25 l -3.19011,3.30853 c 0.0956,0.12555 0.23447,0.29276 0.39861,0.45102 1.18347,1.14111 2.65257,1.19072 3.81867,-0.0187 1.0828,-1.123 1.23637,-2.94195 -0.12851,-4.25797 -1.39943,-1.34935 -3.17765,-1.13024 -4.39372,0.13098 z m 3.94407,3.60287 c -0.69133,0.71699 -1.57273,0.78397 -2.49488,0.0115 l 2.58208,-2.67792 c 0.70435,0.92918 0.57914,1.97533 -0.0872,2.66641 z"
             inkscape:connector-curvature="0" />
          <path
             id="path7797"
             style="font-style:normal;font-variant:normal;font-weight:normal;font-stretch:normal;font-family:'Source Code Pro for Powerline';-inkscape-font-specification:'Source Code Pro for Powerline';letter-spacing:0.15000001px;fill:#058282;fill-opacity:1"
             d="m 347.81915,257.1152 -0.72558,0.66468 2.74787,2.99963 c -0.0261,0.9841 -0.13614,1.55683 -0.64935,2.02697 -0.70788,0.64846 -1.34769,0.51851 -2.09343,-0.29555 l -2.35879,-2.57491 -0.72557,0.66468 2.44795,2.67224 c 1.03755,1.13261 2.05771,1.3047 3.07529,0.37253 0.67248,-0.61604 0.83566,-1.43275 0.84922,-2.32397 l 0.0354,-0.0324 0.73473,0.67768 0.60169,-0.55119 z"
             inkscape:connector-curvature="0" />
          <path
             id="path7799"
             style="font-style:normal;font-variant:normal;font-weight:normal;font-stretch:normal;font-family:'Source Code Pro for Powerline';-inkscape-font-specification:'Source Code Pro for Powerline';letter-spacing:0.15000001px;fill:#058282;fill-opacity:1"
             d="m 339.90331,263.82165 c -0.67139,0.54381 -1.08468,1.31095 -1.22569,2.1664 l 0.74533,0.21476 c 0.1162,-0.61916 0.37852,-1.24858 0.93801,-1.70175 1.04439,-0.84592 2.31022,-0.71302 3.14859,0.32205 0.84593,1.04439 0.70193,2.33465 -0.34246,3.18057 -0.47557,0.3852 -1.02583,0.5066 -1.66318,0.48234 l 0.018,0.80389 c 0.66756,0.0616 1.4501,-0.0781 2.18677,-0.67479 1.37076,-1.11027 1.82463,-2.91405 0.59351,-4.43401 -1.21601,-1.50131 -2.98147,-1.5075 -4.39886,-0.35946 z"
             inkscape:connector-curvature="0" />
          <path
             id="path7801"
             style="font-style:normal;font-variant:normal;font-weight:normal;font-stretch:normal;font-family:'Source Code Pro for Powerline';-inkscape-font-specification:'Source Code Pro for Powerline';letter-spacing:0.15000001px;fill:#058282;fill-opacity:1"
             d="m 334.76947,264.81567 c -1.07344,0.7682 -1.14914,1.89959 -0.83002,3.08782 l 1.58508,6.62748 0.76116,-0.54473 -0.8442,-3.3653 c -0.15114,-0.54112 -0.3219,-1.17149 -0.47725,-1.73911 l 0.039,-0.0279 c 0.52341,0.31898 1.0845,0.67001 1.57021,0.95693 l 3.03986,1.79399 0.80996,-0.57964 -5.61622,-3.16711 -0.10503,-0.45606 c -0.18482,-0.75312 -0.092,-1.46883 0.57158,-1.94372 0.14638,-0.10475 0.32347,-0.18721 0.47826,-0.23897 l -0.28804,-0.75302 c -0.2078,0.0602 -0.46994,0.18874 -0.69438,0.34937 z"
             inkscape:connector-curvature="0" />
        </g>
        <path
           style="fill:none;fill-rule:evenodd;stroke:none;stroke-width:0.82921433"
           d="m 177.67182,264.82929 c -43.58178,-33.9158 -59.82881,-97.11726 -39.63901,-148.2436 16.65714,-45.158377 61.13092,-77.499234 108.89353,-81.142649 47.16652,-4.834164 96.09951,18.705452 120.6142,59.516331 28.78425,45.563298 25.59302,109.128908 -9.20351,150.643248 -34.47308,43.09765 -97.82503,58.59176 -148.68379,37.77978 -49.02363,-18.78479 -82.06846,-70.39405 -80.49136,-122.62487 0.25051,-14.46645 2.95508,-28.89391 8.04368,-42.44164"
           id="path3853"
           inkscape:connector-curvature="0" />
        <path
           style="fill:none;stroke:#024757;stroke-width:1px;stroke-linecap:round;stroke-linejoin:bevel;stroke-opacity:1;marker-start:url(#DotL);marker-mid:url(#DotL)"
           d="m 231.82943,204.1056 -7.7779,-74.71096 58.16984,30.53587 27.37661,65.00805 -8.7632,-127.391889 -76.78325,31.847969"
           id="path4669"
           inkscape:connector-curvature="0"
           sodipodi:nodetypes="cccccc" />
      </g>
      <g
         id="text7920"
         style="font-style:normal;font-variant:normal;font-weight:500;font-stretch:normal;font-size:16px;line-height:1.25;font-family:'Source Code Pro for Powerline';-inkscape-font-specification:'Source Code Pro for Powerline Medium';text-align:center;letter-spacing:0px;word-spacing:0px;text-anchor:middle;fill:#000000;fill-opacity:1;stroke:none"
         aria-label="FARADAY-CAGE">
        <path
           id="path7924"
           d="m 212.77635,298.74747 h 1.6 v -4.528 h 4.208 v -1.36 h -4.208 v -3.248 h 4.96 v -1.344 h -6.56 z"
           inkscape:connector-curvature="0" />
        <path
           id="path7926"
           d="m 224.1141,293.03547 c 0.336,-1.136 0.672,-2.304 0.976,-3.488 h 0.064 c 0.304,1.184 0.656,2.352 0.992,3.488 l 0.432,1.44 h -2.896 z m -3.344,5.712 h 1.632 l 0.896,-3.008 h 3.648 l 0.896,3.008 h 1.696 l -3.456,-10.48 h -1.856 z"
           inkscape:connector-curvature="0" />
        <path
           id="path7928"
           d="m 231.41985,298.74747 h 1.6 v -4.256 h 1.712 l 2.384,4.256 h 1.808 l -2.576,-4.464 c 1.328,-0.4 2.208,-1.376 2.208,-2.992 0,-2.256 -1.6,-3.024 -3.76,-3.024 h -3.376 z m 1.6,-5.552 v -3.648 h 1.584 c 1.536,0 2.368,0.464 2.368,1.744 0,1.28 -0.832,1.904 -2.368,1.904 z"
           inkscape:connector-curvature="0" />
        <path
           id="path7930"
           d="m 243.3016,293.03547 c 0.336,-1.136 0.672,-2.304 0.976,-3.488 h 0.064 c 0.304,1.184 0.656,2.352 0.992,3.488 l 0.432,1.44 h -2.896 z m -3.344,5.712 h 1.632 l 0.896,-3.008 h 3.648 l 0.896,3.008 h 1.696 l -3.456,-10.48 h -1.856 z"
           inkscape:connector-curvature="0" />
        <path
           id="path7932"
           d="m 250.46335,298.74747 h 2.736 c 3.056,0 4.832,-1.888 4.832,-5.28 0,-3.408 -1.776,-5.2 -4.912,-5.2 h -2.656 z m 1.6,-1.296 v -7.888 h 0.96 c 2.192,0 3.36,1.296 3.36,3.904 0,2.608 -1.168,3.984 -3.36,3.984 z"
           inkscape:connector-curvature="0" />
        <path
           id="path7934"
           d="m 262.4891,293.03547 c 0.336,-1.136 0.672,-2.304 0.976,-3.488 h 0.064 c 0.304,1.184 0.656,2.352 0.992,3.488 l 0.432,1.44 h -2.896 z m -3.344,5.712 h 1.632 l 0.896,-3.008 h 3.648 l 0.896,3.008 h 1.696 l -3.456,-10.48 h -1.856 z"
           inkscape:connector-curvature="0" />
        <path
           id="path7936"
           d="m 272.32285,298.74747 h 1.6 v -3.68 l 3.472,-6.8 h -1.648 l -1.392,2.96 c -0.384,0.816 -0.768,1.6 -1.168,2.432 h -0.064 c -0.4,-0.832 -0.752,-1.616 -1.136,-2.432 l -1.44,-2.96 h -1.696 l 3.472,6.8 z"
           inkscape:connector-curvature="0" />
        <path
           id="path7938"
           d="m 279.2126,294.04347 h 7.008 v -1.152 h -7.008 z"
           inkscape:connector-curvature="0" />
        <path
           id="path7940"
           d="m 293.14235,298.93947 c 1.392,0 2.464,-0.544 3.296,-1.52 l -0.896,-0.976 c -0.624,0.704 -1.328,1.104 -2.24,1.104 -1.904,0 -3.152,-1.552 -3.152,-4.064 0,-2.48 1.248,-4.016 3.12,-4.016 0.864,0 1.52,0.352 2.048,0.912 l 0.896,-1.008 c -0.64,-0.672 -1.664,-1.296 -2.944,-1.296 -2.752,0 -4.768,2.048 -4.768,5.456 0,3.44 2.048,5.408 4.64,5.408 z"
           inkscape:connector-curvature="0" />
        <path
           id="path7942"
           d="m 300.8641,293.03547 c 0.336,-1.136 0.672,-2.304 0.976,-3.488 h 0.064 c 0.304,1.184 0.656,2.352 0.992,3.488 l 0.432,1.44 h -2.896 z m -3.344,5.712 h 1.632 l 0.896,-3.008 h 3.648 l 0.896,3.008 h 1.696 l -3.456,-10.48 h -1.856 z"
           inkscape:connector-curvature="0" />
        <path
           id="path7944"
           d="m 312.12185,298.93947 c 1.344,0 2.496,-0.56 3.168,-1.232 v -4.512 h -3.408 v 1.312 h 1.936 v 2.496 c -0.352,0.336 -0.96,0.544 -1.6,0.544 -1.968,0 -3.056,-1.552 -3.056,-4.064 0,-2.48 1.232,-4.016 3.04,-4.016 0.96,0 1.552,0.384 2.048,0.912 l 0.896,-1.008 c -0.624,-0.64 -1.552,-1.296 -2.944,-1.296 -2.704,0 -4.688,2.032 -4.688,5.456 0,3.44 1.952,5.408 4.608,5.408 z"
           inkscape:connector-curvature="0" />
        <path
           id="path7946"
           d="m 318.0356,298.74747 h 6.752 v -1.344 h -5.152 v -3.456 h 4.224 v -1.344 h -4.224 v -2.992 h 4.992 v -1.344 h -6.592 z"
           inkscape:connector-curvature="0" />
      </g>
    </g>
  </g>
</svg>
